<svg xmlns="http://www.w3.org/2000/svg" viewBox="0 0 204 32">
  <g shape-rendering="geometricPrecision">
  <path fill="#b88b4a" stroke="#b88b4a" stroke-width="13.5" transform="translate(0.0000, 24) scale(0.026000, -0.026000)" d="M89 408Q89 491 87.0 555.5Q85 620 81 685Q98 683 118.0 681.5Q138 680 163 680Q188 680 208.0 681.5Q228 683 245 685Q241 620 239.0 555.5Q237 491 237 408V272Q237 215 237.5 162.0Q238 109 239 70Q296 70 353.0 73.0Q410 76 468 83Q466 72 465.0 63.0Q464 54 464 38Q464 22 465.0 13.0Q466 4 468 -2Q441 -1 401.5 -0.5Q362 0 293 0Q232 0 194 0Q157 0 134.5 0.0Q112 0 100.5 -0.5Q89 -1 81 -2Q85 60 87.0 124.5Q89 189 89 272V408Z"/>
  <path fill="#b88b4a" stroke="#b88b4a" stroke-width="13.5" transform="translate(12.5000, 24) scale(0.026000, -0.026000)" d="M295 150Q295 193 295.5 215.5Q296 238 296 255Q275 243 251.5 235.5Q228 228 208.5 216.5Q189 205 176.5 185.0Q164 165 164 127Q164 90 179.5 70.5Q195 51 221 51Q254 51 274.5 76.0Q295 101 295 150ZM58 422Q100 456 148.5 474.0Q197 492 245 492Q285 492 318.5 483.0Q352 474 376.5 454.5Q401 435 414.5 404.0Q428 373 428 329Q428 265 426.5 210.5Q425 156 425 102Q425 78 428.5 64.5Q432 51 439.0 44.0Q446 37 457.5 35.0Q469 33 484 33V9Q455 -3 435.0 -9.0Q415 -15 392 -15Q355 -15 332.0 3.0Q309 21 297 55Q274 23 243.5 4.0Q213 -15 167 -15Q129 -15 102.0 -5.0Q75 5 57.5 23.5Q40 42 32.0 65.5Q24 89 24 113Q24 146 34.5 170.0Q45 194 64.5 211.0Q84 228 111.0 239.5Q138 251 172 259Q214 269 238.5 276.5Q263 284 275.0 291.5Q287 299 290.5 308.0Q294 317 294 330Q294 366 268.5 391.5Q243 417 198 417Q181 417 163.0 412.5Q145 408 128.5 400.0Q112 392 98.5 382.5Q85 373 78 362H71Z"/>
  <path fill="#b88b4a" stroke="#b88b4a" stroke-width="13.5" transform="translate(25.0000, 24) scale(0.026000, -0.026000)" d="M197 355Q223 424 260.0 456.5Q297 489 348 489Q353 489 356.5 488.5Q360 488 364 488Q361 473 359.5 456.0Q358 439 358 416V384Q358 376 358 367Q358 358 359 350L350 342Q340 348 327.5 352.0Q315 356 299 356Q254 356 228.0 326.5Q202 297 202 257V217Q202 156 203.5 102.0Q205 48 210 -2Q197 0 177.5 0.0Q158 0 135 0Q112 0 93.0 0.0Q74 0 60 -2Q65 48 66.5 102.0Q68 156 68 217V257Q68 318 66.5 371.5Q65 425 60 479Q77 477 94.5 475.5Q112 474 129 474Q146 474 163.5 475.5Q181 477 198 479L195 357Z"/>
  <path fill="#b88b4a" stroke="#b88b4a" stroke-width="13.5" transform="translate(34.4500, 24) scale(0.026000, -0.026000)" d="M295 150Q295 193 295.5 215.5Q296 238 296 255Q275 243 251.5 235.5Q228 228 208.5 216.5Q189 205 176.5 185.0Q164 165 164 127Q164 90 179.5 70.5Q195 51 221 51Q254 51 274.5 76.0Q295 101 295 150ZM58 422Q100 456 148.5 474.0Q197 492 245 492Q285 492 318.5 483.0Q352 474 376.5 454.5Q401 435 414.5 404.0Q428 373 428 329Q428 265 426.5 210.5Q425 156 425 102Q425 78 428.5 64.5Q432 51 439.0 44.0Q446 37 457.5 35.0Q469 33 484 33V9Q455 -3 435.0 -9.0Q415 -15 392 -15Q355 -15 332.0 3.0Q309 21 297 55Q274 23 243.5 4.0Q213 -15 167 -15Q129 -15 102.0 -5.0Q75 5 57.5 23.5Q40 42 32.0 65.5Q24 89 24 113Q24 146 34.5 170.0Q45 194 64.5 211.0Q84 228 111.0 239.5Q138 251 172 259Q214 269 238.5 276.5Q263 284 275.0 291.5Q287 299 290.5 308.0Q294 317 294 330Q294 366 268.5 391.5Q243 417 198 417Q181 417 163.0 412.5Q145 408 128.5 400.0Q112 392 98.5 382.5Q85 373 78 362H71Z"/>
  <path fill="#b88b4a" stroke="#b88b4a" stroke-width="13.5" transform="translate(46.4100, 24) scale(0.026000, -0.026000)" d="M282 129Q314 217 343.5 304.0Q373 391 402 479Q413 477 423.0 475.5Q433 474 443 474Q453 474 463.0 475.5Q473 477 485 479Q469 440 446.0 388.5Q423 337 397.5 275.5Q372 214 345.5 143.5Q319 73 296 -2Q282 0 269.0 0.0Q256 0 242 0Q228 0 215.0 0.0Q202 0 188 -2Q168 55 143.5 124.0Q119 193 95.0 259.5Q71 326 50.0 384.0Q29 442 15 479Q36 477 55.5 475.5Q75 474 94 474Q113 474 131.5 475.5Q150 477 169 479Q196 391 223.5 304.0Q251 217 280 129H282Z"/>
  <path fill="#b88b4a" stroke="#b88b4a" stroke-width="13.5" transform="translate(58.3600, 24) scale(0.026000, -0.026000)" d="M181 237Q181 197 189.0 162.0Q197 127 213.5 101.5Q230 76 255.5 61.5Q281 47 315 47Q384 47 438 92L450 83L428 27Q403 8 368.0 -3.5Q333 -15 276 -15Q227 -15 183.0 -1.5Q139 12 105.5 43.0Q72 74 52.5 121.5Q33 169 33 235Q33 300 50.5 348.0Q68 396 99.0 428.0Q130 460 172.5 476.0Q215 492 265 492Q364 492 416.5 434.0Q469 376 469 270V249Q469 240 468 237ZM335 282Q333 357 316.5 402.0Q300 447 261 447Q239 447 224.0 432.0Q209 417 200.0 393.5Q191 370 186.5 340.5Q182 311 181 282Z"/>
  <path fill="#b88b4a" stroke="#b88b4a" stroke-width="13.5" transform="translate(70.7000, 24) scale(0.026000, -0.026000)" d="M72 406Q72 504 70.0 586.0Q68 668 64 752Q77 750 97.0 748.5Q117 747 139 747Q161 747 181.0 748.5Q201 750 214 752Q210 668 208.0 586.0Q206 504 206 406V341Q206 243 208.0 161.0Q210 79 214 -2Q201 0 181.0 0.0Q161 0 139 0Q117 0 97.0 0.0Q77 0 64 -2Q68 79 70.0 161.0Q72 243 72 341V406Z"/>
  <path fill="#f5f1e8" stroke="#f5f1e8" stroke-width="13.5" transform="translate(83.4500, 24) scale(0.026000, -0.026000)" d="M169 449Q153 334 145.0 222.0Q137 110 129 -2Q117 0 105.0 0.0Q93 0 82 0Q70 0 58.5 0.0Q47 0 35 -2Q67 170 92.0 340.0Q117 510 138 685Q149 683 158.5 681.5Q168 680 179 680Q188 680 198.0 681.5Q208 683 219 685Q246 625 275.5 563.0Q305 501 334.5 439.5Q364 378 393.5 319.0Q423 260 450 207Q510 319 569.5 441.5Q629 564 683 685Q708 680 726 680Q743 680 768 685Q778 599 789.5 500.0Q801 401 812.0 306.5Q823 212 834.0 130.0Q845 48 854 -2Q834 0 813.5 0.0Q793 0 773 0Q753 0 732.0 0.0Q711 0 690 -2Q685 101 673.5 221.0Q662 341 650 459H648Q591 341 536.0 227.0Q481 113 427 -2Q422 -1 417.5 -0.5Q413 0 408 0Q403 0 398.5 -0.5Q394 -1 389 -2Q335 110 281.5 222.0Q228 334 171 449H169Z"/>
  <path fill="#f5f1e8" stroke="#f5f1e8" stroke-width="13.5" transform="translate(106.0500, 24) scale(0.026000, -0.026000)" d="M295 150Q295 193 295.5 215.5Q296 238 296 255Q275 243 251.5 235.5Q228 228 208.5 216.5Q189 205 176.5 185.0Q164 165 164 127Q164 90 179.5 70.5Q195 51 221 51Q254 51 274.5 76.0Q295 101 295 150ZM58 422Q100 456 148.5 474.0Q197 492 245 492Q285 492 318.5 483.0Q352 474 376.5 454.5Q401 435 414.5 404.0Q428 373 428 329Q428 265 426.5 210.5Q425 156 425 102Q425 78 428.5 64.5Q432 51 439.0 44.0Q446 37 457.5 35.0Q469 33 484 33V9Q455 -3 435.0 -9.0Q415 -15 392 -15Q355 -15 332.0 3.0Q309 21 297 55Q274 23 243.5 4.0Q213 -15 167 -15Q129 -15 102.0 -5.0Q75 5 57.5 23.5Q40 42 32.0 65.5Q24 89 24 113Q24 146 34.5 170.0Q45 194 64.5 211.0Q84 228 111.0 239.5Q138 251 172 259Q214 269 238.5 276.5Q263 284 275.0 291.5Q287 299 290.5 308.0Q294 317 294 330Q294 366 268.5 391.5Q243 417 198 417Q181 417 163.0 412.5Q145 408 128.5 400.0Q112 392 98.5 382.5Q85 373 78 362H71Z"/>
  <path fill="#f5f1e8" stroke="#f5f1e8" stroke-width="13.5" transform="translate(118.5500, 24) scale(0.026000, -0.026000)" d="M60 668Q60 701 83.0 724.0Q106 747 139 747Q172 747 195.0 724.0Q218 701 218 668Q218 635 195.0 612.0Q172 589 139 589Q106 589 83.0 612.0Q60 635 60 668ZM72 257Q72 318 70.5 371.5Q69 425 64 479Q78 477 97.0 475.5Q116 474 139 474Q186 474 214 479Q209 425 207.5 371.5Q206 318 206 257V217Q206 156 207.5 102.0Q209 48 214 -2Q201 0 181.5 0.0Q162 0 139 0Q116 0 97.0 0.0Q78 0 64 -2Q69 48 70.5 102.0Q72 156 72 217Z"/>
  <path fill="#f5f1e8" stroke="#f5f1e8" stroke-width="13.5" transform="translate(125.2800, 24) scale(0.026000, -0.026000)" d="M72 406Q72 504 70.0 586.0Q68 668 64 752Q77 750 97.0 748.5Q117 747 139 747Q161 747 181.0 748.5Q201 750 214 752Q210 668 208.0 586.0Q206 504 206 406V341Q206 243 208.0 161.0Q210 79 214 -2Q201 0 181.0 0.0Q161 0 139 0Q117 0 97.0 0.0Q77 0 64 -2Q68 79 70.0 161.0Q72 243 72 341V406Z"/>
  <path fill="#f5f1e8" stroke="#f5f1e8" stroke-width="13.5" transform="translate(132.0100, 24) scale(0.026000, -0.026000)" d="M195 234Q195 190 198.5 152.0Q202 114 211.5 86.5Q221 59 237.5 43.0Q254 27 281 27Q324 27 349.5 80.5Q375 134 375 256Q375 430 289 430Q268 430 250.5 420.0Q233 410 220.5 386.5Q208 363 201.5 325.5Q195 288 195 234ZM61 406Q61 504 59.0 586.0Q57 668 53 752Q66 750 86.0 748.5Q106 747 128 747Q150 747 170.0 748.5Q190 750 203 752Q199 668 197.0 586.0Q195 504 195 406H197Q214 448 249.5 470.0Q285 492 330 492Q373 492 408.5 473.0Q444 454 469.5 422.0Q495 390 509.0 346.5Q523 303 523 253Q523 178 502.5 126.5Q482 75 449.5 43.0Q417 11 377.0 -2.0Q337 -15 298 -15Q250 -15 217.0 3.5Q184 22 163 52Q142 40 120.5 24.0Q99 8 77 -6H53Q57 78 59.0 160.5Q61 243 61 341Z"/>
  <path fill="#f5f1e8" stroke="#f5f1e8" stroke-width="13.5" transform="translate(145.9700, 24) scale(0.026000, -0.026000)" d="M197 355Q223 424 260.0 456.5Q297 489 348 489Q353 489 356.5 488.5Q360 488 364 488Q361 473 359.5 456.0Q358 439 358 416V384Q358 376 358 367Q358 358 359 350L350 342Q340 348 327.5 352.0Q315 356 299 356Q254 356 228.0 326.5Q202 297 202 257V217Q202 156 203.5 102.0Q205 48 210 -2Q197 0 177.5 0.0Q158 0 135 0Q112 0 93.0 0.0Q74 0 60 -2Q65 48 66.5 102.0Q68 156 68 217V257Q68 318 66.5 371.5Q65 425 60 479Q77 477 94.5 475.5Q112 474 129 474Q146 474 163.5 475.5Q181 477 198 479L195 357Z"/>
  <path fill="#f5f1e8" stroke="#f5f1e8" stroke-width="13.5" transform="translate(155.5800, 24) scale(0.026000, -0.026000)" d="M60 668Q60 701 83.0 724.0Q106 747 139 747Q172 747 195.0 724.0Q218 701 218 668Q218 635 195.0 612.0Q172 589 139 589Q106 589 83.0 612.0Q60 635 60 668ZM72 257Q72 318 70.5 371.5Q69 425 64 479Q78 477 97.0 475.5Q116 474 139 474Q186 474 214 479Q209 425 207.5 371.5Q206 318 206 257V217Q206 156 207.5 102.0Q209 48 214 -2Q201 0 181.5 0.0Q162 0 139 0Q116 0 97.0 0.0Q78 0 64 -2Q69 48 70.5 102.0Q72 156 72 217Z"/>
  <path fill="#f5f1e8" stroke="#f5f1e8" stroke-width="13.5" transform="translate(162.3100, 24) scale(0.026000, -0.026000)" d="M181 227Q181 176 188.0 141.0Q195 106 207.0 84.5Q219 63 234.5 53.5Q250 44 267 44Q308 44 334.5 90.5Q361 137 361 245Q361 338 336.0 380.5Q311 423 272 423Q256 423 240.0 414.0Q224 405 211.0 382.5Q198 360 189.5 322.0Q181 284 181 227ZM495 341Q495 243 497.0 161.0Q499 79 503 -2Q490 0 470.0 0.0Q450 0 428 0Q408 0 389.5 0.0Q371 0 361 -2Q362 0 363.0 11.0Q364 22 365.5 36.0Q367 50 368.0 62.0Q369 74 369 77L367 79Q348 34 315.0 9.5Q282 -15 224 -15Q173 -15 137.0 4.5Q101 24 78.0 59.0Q55 94 44.0 141.0Q33 188 33 242Q33 296 48.0 341.5Q63 387 89.0 420.5Q115 454 150.5 473.0Q186 492 226 492Q271 492 306.5 471.0Q342 450 359 418H361Q361 508 359.0 587.5Q357 667 353 752Q366 750 386.0 748.5Q406 747 428 747Q450 747 470.0 748.5Q490 750 503 752Q499 668 497.0 586.0Q495 504 495 406Z"/>
  <path fill="#f5f1e8" stroke="#f5f1e8" stroke-width="13.5" transform="translate(176.2700, 24) scale(0.026000, -0.026000)" d="M244 451Q176 451 176 319Q176 286 182.0 263.5Q188 241 197.5 227.0Q207 213 218.5 207.0Q230 201 242 201Q275 201 291.0 230.0Q307 259 307 328Q307 396 289.0 423.5Q271 451 244 451ZM393 441Q418 423 432.5 395.5Q447 368 447 330Q447 293 433.0 262.5Q419 232 393.5 210.0Q368 188 332.5 176.0Q297 164 253 164Q242 164 231.5 164.5Q221 165 208 165Q196 165 187.5 154.0Q179 143 179 129Q179 105 197.5 91.0Q216 77 256 76L330 75Q414 74 453.5 43.5Q493 13 493 -54Q493 -114 468.5 -154.5Q444 -195 405.5 -220.5Q367 -246 320.0 -257.0Q273 -268 229 -268Q135 -268 82.5 -231.5Q30 -195 30 -135Q30 -87 56.5 -57.5Q83 -28 128 -11V-9Q102 0 86.5 18.5Q71 37 71 65Q71 98 96.5 129.0Q122 160 164 171V173Q103 188 70 227Q36 267 36 331Q36 369 51.5 399.0Q67 429 95.0 449.5Q123 470 162.0 481.0Q201 492 248 492Q266 492 285.0 490.5Q304 489 322 488Q335 487 348.5 486.5Q362 486 378 486Q403 486 430.0 486.5Q457 487 484 487Q483 481 482.5 475.0Q482 469 482 463Q482 457 482.5 451.0Q483 445 484 439L396 443ZM377 -108Q377 -79 367.0 -60.5Q357 -42 338.5 -32.0Q320 -22 293.0 -18.5Q266 -15 232 -15Q180 -15 160 -25Q148 -31 134.5 -54.0Q121 -77 121 -112Q121 -141 131.5 -162.5Q142 -184 160.0 -198.0Q178 -212 201.5 -219.5Q225 -227 252 -227Q281 -227 304.0 -217.5Q327 -208 343.5 -191.5Q360 -175 368.5 -153.5Q377 -132 377 -108Z"/>
  <path fill="#f5f1e8" stroke="#f5f1e8" stroke-width="13.5" transform="translate(188.7700, 24) scale(0.026000, -0.026000)" d="M181 237Q181 197 189.0 162.0Q197 127 213.5 101.5Q230 76 255.5 61.5Q281 47 315 47Q384 47 438 92L450 83L428 27Q403 8 368.0 -3.5Q333 -15 276 -15Q227 -15 183.0 -1.5Q139 12 105.5 43.0Q72 74 52.5 121.5Q33 169 33 235Q33 300 50.5 348.0Q68 396 99.0 428.0Q130 460 172.5 476.0Q215 492 265 492Q364 492 416.5 434.0Q469 376 469 270V249Q469 240 468 237ZM335 282Q333 357 316.5 402.0Q300 447 261 447Q239 447 224.0 432.0Q209 417 200.0 393.5Q191 370 186.5 340.5Q182 311 181 282Z"/>
</g>
</svg>