<svg shape-rendering="geometricPrecision" width="620" height="96" viewBox="0 0 620 96" fill="none" xmlns="http://www.w3.org/2000/svg" role="img" aria-labelledby="title desc">
  <title id="title">Ashrafic Labs horizontal logo primary</title>
  <desc id="desc">Primary horizontal logo with F5 precision-frame icon and Optima-style all-caps wordmark.</desc>
  <rect width="96" height="96" fill="url(#ashrafic-labs-f5-gradient)"/>
  <rect x="1" y="1" width="94" height="94" stroke="#d7bd8b" stroke-opacity="0.52" stroke-width="2"/>
  <rect x="12" y="12" width="72" height="72" stroke="#d7bd8b" stroke-opacity="0.42" stroke-width="2"/>
  <rect x="22" y="20" width="3" height="56" fill="#d7bd8b"/>
  <rect x="22" y="20" width="36" height="3" fill="#d7bd8b"/>
  <rect x="28" y="47" width="40" height="3" fill="#fbf8f0"/>
  <rect x="58" y="20" width="3" height="56" fill="#d7bd8b"/>
  <rect x="58" y="73" width="18" height="3" fill="#d7bd8b"/>
  <g fill="#171717">
  <path transform="translate(128.0000, 64) scale(0.048000, -0.048000)" d="M299 497Q273 437 250.0 378.5Q227 320 205 259H388Q366 320 344.5 378.5Q323 437 299 497ZM653 -2Q629 0 607.5 0.0Q586 0 565 0Q544 0 522.5 0.0Q501 0 480 -2Q464 47 447.0 98.0Q430 149 411 200Q379 201 347.0 201.5Q315 202 283 202Q257 202 231.0 201.5Q205 201 179 200Q159 149 142.0 98.0Q125 47 111 -2Q99 0 87.5 0.0Q76 0 64 0Q52 0 40.0 0.0Q28 0 14 -2Q26 24 46.0 70.0Q66 116 90.0 174.0Q114 232 141.5 298.5Q169 365 196.5 433.0Q224 501 250.5 567.0Q277 633 299 690Q309 688 318.0 686.5Q327 685 337 685Q347 685 356.0 686.5Q365 688 375 690Q407 605 443.5 508.0Q480 411 517.0 317.5Q554 224 589.0 140.0Q624 56 653 -2Z"/>
  <path transform="translate(171.2600, 64) scale(0.048000, -0.048000)" d="M384 550Q352 636 263 636Q217 636 188.0 609.0Q159 582 159 546Q159 509 181.5 485.5Q204 462 238.0 443.0Q272 424 311.0 406.5Q350 389 384.0 363.5Q418 338 440.5 301.5Q463 265 463 208Q463 158 444.0 116.5Q425 75 390.0 45.5Q355 16 306.5 0.5Q258 -15 198 -15Q144 -15 101.5 -3.5Q59 8 37 25Q47 60 54.0 89.0Q61 118 66 152H85Q89 130 100.0 110.5Q111 91 128.0 76.0Q145 61 169.0 52.5Q193 44 223 44Q283 44 311.5 74.0Q340 104 340 146Q340 184 318.0 208.0Q296 232 263.0 250.5Q230 269 191.0 286.5Q152 304 119.0 329.0Q86 354 64.0 390.5Q42 427 42 484Q42 536 60.5 576.0Q79 616 110.0 643.0Q141 670 181.5 684.0Q222 698 267 698Q321 698 361.5 685.0Q402 672 431 649Q422 626 415.5 604.5Q409 583 399 550H384Z"/>
  <path transform="translate(206.5040, 64) scale(0.048000, -0.048000)" d="M541 329Q503 330 465.0 331.5Q427 333 389 333Q351 333 313.0 332.0Q275 331 237 329V272Q237 189 239.0 124.5Q241 60 245 -2Q228 0 208.0 0.0Q188 0 163 0Q138 0 118.0 0.0Q98 0 81 -2Q85 60 87.0 124.5Q89 189 89 272V408Q89 491 87.0 555.5Q85 620 81 685Q98 683 118.0 681.5Q138 680 163 680Q188 680 208.0 681.5Q228 683 245 685Q240 620 238.5 556.5Q237 493 237 410Q263 409 299.5 408.5Q336 408 390 408Q444 408 478.0 408.5Q512 409 541 410Q541 493 539.0 556.5Q537 620 533 685Q550 683 570.0 681.5Q590 680 615 680Q640 680 660.0 681.5Q680 683 697 685Q693 620 691.0 555.5Q689 491 689 408V272Q689 189 691.0 124.5Q693 60 697 -2Q680 0 660.0 0.0Q640 0 615 0Q590 0 570.0 0.0Q550 0 533 -2Q537 60 539.0 124.5Q541 189 541 272V329Z"/>
  <path transform="translate(255.0920, 64) scale(0.048000, -0.048000)" d="M395 497Q395 541 386.0 567.0Q377 593 358.5 606.5Q340 620 310.5 624.0Q281 628 240 628Q237 492 237 356Q243 355 248.5 354.5Q254 354 259 354Q325 354 360.0 389.5Q395 425 395 497ZM237 313V272Q237 189 239.0 124.5Q241 60 245 -2Q228 0 208.0 0.0Q188 0 163 0Q138 0 118.0 0.0Q98 0 81 -2Q85 60 87.0 124.5Q89 189 89 272V408Q89 491 87.0 555.5Q85 620 81 685Q98 683 118.0 681.5Q138 680 163 680Q190 680 224.5 682.5Q259 685 310 685Q348 685 375.0 683.0Q402 681 421.5 677.0Q441 673 455.5 666.5Q470 660 483 651Q513 629 530.5 596.5Q548 564 548 519Q548 446 508.0 400.0Q468 354 393 335Q441 250 496.0 165.5Q551 81 606 -2Q583 0 561.0 0.0Q539 0 516 0Q493 0 470.5 0.0Q448 0 425 -2L246 313Z"/>
  <path transform="translate(295.6640, 64) scale(0.048000, -0.048000)" d="M299 497Q273 437 250.0 378.5Q227 320 205 259H388Q366 320 344.5 378.5Q323 437 299 497ZM653 -2Q629 0 607.5 0.0Q586 0 565 0Q544 0 522.5 0.0Q501 0 480 -2Q464 47 447.0 98.0Q430 149 411 200Q379 201 347.0 201.5Q315 202 283 202Q257 202 231.0 201.5Q205 201 179 200Q159 149 142.0 98.0Q125 47 111 -2Q99 0 87.5 0.0Q76 0 64 0Q52 0 40.0 0.0Q28 0 14 -2Q26 24 46.0 70.0Q66 116 90.0 174.0Q114 232 141.5 298.5Q169 365 196.5 433.0Q224 501 250.5 567.0Q277 633 299 690Q309 688 318.0 686.5Q327 685 337 685Q347 685 356.0 686.5Q365 688 375 690Q407 605 443.5 508.0Q480 411 517.0 317.5Q554 224 589.0 140.0Q624 56 653 -2Z"/>
  <path transform="translate(338.9240, 64) scale(0.048000, -0.048000)" d="M80 408Q80 491 78.0 555.5Q76 620 72 685Q117 684 161.0 682.0Q205 680 250 680Q324 680 381.5 681.5Q439 683 459 685Q455 669 455 643Q455 627 456.0 618.0Q457 609 459 598Q430 600 395.5 602.0Q361 604 328.5 606.0Q296 608 270.0 609.0Q244 610 233 610Q229 555 228.5 501.0Q228 447 228 392Q293 393 345.5 395.0Q398 397 455 400Q452 383 451.0 374.0Q450 365 450 355Q450 347 451.5 338.5Q453 330 455 314Q341 323 228 323V272Q228 189 230.0 124.5Q232 60 236 -2Q219 0 199.0 0.0Q179 0 154 0Q129 0 109.0 0.0Q89 0 72 -2Q76 60 78.0 124.5Q80 189 80 272V408Z"/>
  <path transform="translate(374.1680, 64) scale(0.048000, -0.048000)" d="M93 408Q93 491 91.0 555.5Q89 620 85 685Q102 683 122.0 681.5Q142 680 167 680Q192 680 212.0 681.5Q232 683 249 685Q245 620 243.0 555.5Q241 491 241 408V272Q241 189 243.0 124.5Q245 60 249 -2Q232 0 212.0 0.0Q192 0 167 0Q142 0 122.0 0.0Q102 0 85 -2Q89 60 91.0 124.5Q93 189 93 272V408Z"/>
  <path transform="translate(401.3960, 64) scale(0.048000, -0.048000)" d="M630 111Q622 90 616.0 68.5Q610 47 608 26Q527 -15 404 -15Q317 -15 248.5 9.5Q180 34 132.5 78.5Q85 123 60.0 184.0Q35 245 35 316Q35 420 67.5 492.5Q100 565 154.5 610.5Q209 656 281.0 677.0Q353 698 432 698Q458 698 487.0 694.0Q516 690 543.0 683.5Q570 677 594.5 668.0Q619 659 636 649Q626 624 620.5 598.5Q615 573 613 547H599Q561 595 521.0 615.5Q481 636 427 636Q387 636 346.5 618.0Q306 600 273.0 563.0Q240 526 219.5 468.5Q199 411 199 331Q199 254 220.0 199.5Q241 145 274.5 110.5Q308 76 350.5 60.0Q393 44 436 44Q460 44 485.0 49.5Q510 55 534.0 64.5Q558 74 579.5 88.0Q601 102 617 119L630 111Z"/>
  <path transform="translate(469.2440, 64) scale(0.048000, -0.048000)" d="M89 408Q89 491 87.0 555.5Q85 620 81 685Q98 683 118.0 681.5Q138 680 163 680Q188 680 208.0 681.5Q228 683 245 685Q241 620 239.0 555.5Q237 491 237 408V272Q237 215 237.5 162.0Q238 109 239 70Q296 70 353.0 73.0Q410 76 468 83Q466 72 465.0 63.0Q464 54 464 38Q464 22 465.0 13.0Q466 4 468 -2Q441 -1 401.5 -0.5Q362 0 293 0Q232 0 194 0Q157 0 134.5 0.0Q112 0 100.5 -0.5Q89 -1 81 -2Q85 60 87.0 124.5Q89 189 89 272V408Z"/>
  <path transform="translate(504.4880, 64) scale(0.048000, -0.048000)" d="M299 497Q273 437 250.0 378.5Q227 320 205 259H388Q366 320 344.5 378.5Q323 437 299 497ZM653 -2Q629 0 607.5 0.0Q586 0 565 0Q544 0 522.5 0.0Q501 0 480 -2Q464 47 447.0 98.0Q430 149 411 200Q379 201 347.0 201.5Q315 202 283 202Q257 202 231.0 201.5Q205 201 179 200Q159 149 142.0 98.0Q125 47 111 -2Q99 0 87.5 0.0Q76 0 64 0Q52 0 40.0 0.0Q28 0 14 -2Q26 24 46.0 70.0Q66 116 90.0 174.0Q114 232 141.5 298.5Q169 365 196.5 433.0Q224 501 250.5 567.0Q277 633 299 690Q309 688 318.0 686.5Q327 685 337 685Q347 685 356.0 686.5Q365 688 375 690Q407 605 443.5 508.0Q480 411 517.0 317.5Q554 224 589.0 140.0Q624 56 653 -2Z"/>
  <path transform="translate(547.7480, 64) scale(0.048000, -0.048000)" d="M404 188Q404 258 372.5 292.5Q341 327 281 327Q267 327 257.0 326.5Q247 326 238 326Q238 305 237.5 282.5Q237 260 237 229Q237 205 237.5 180.0Q238 155 238 131Q238 107 238.5 87.0Q239 67 239 54Q253 53 265.0 52.5Q277 52 294 52Q316 52 336.0 61.0Q356 70 371.0 87.5Q386 105 395.0 130.0Q404 155 404 188ZM397 511Q397 535 391.5 556.5Q386 578 373.0 593.5Q360 609 340.0 618.5Q320 628 290 628Q268 628 259.5 627.5Q251 627 241 625Q239 588 238.0 550.0Q237 512 237 486Q237 459 237.5 434.5Q238 410 238 384H283Q304 384 324.5 392.0Q345 400 361.0 415.5Q377 431 387.0 455.0Q397 479 397 511ZM89 408Q89 491 87.0 555.5Q85 620 81 685Q98 683 118.0 681.5Q138 680 163 680Q206 680 253.0 682.5Q300 685 343 685Q388 685 425.0 676.0Q462 667 489.0 648.5Q516 630 530.5 600.5Q545 571 545 530Q545 489 528.0 459.5Q511 430 486.5 410.5Q462 391 433.5 380.0Q405 369 382 365V363Q405 362 436.0 352.5Q467 343 495.0 323.0Q523 303 542.5 271.5Q562 240 562 195Q562 141 542.5 103.0Q523 65 490.5 41.0Q458 17 416.0 7.5Q374 -2 329 -2Q289 -2 254.5 -1.0Q220 0 182 0Q155 0 126.5 0.0Q98 0 81 -2Q85 60 87.0 124.5Q89 189 89 272Z"/>
  <path transform="translate(588.3200, 64) scale(0.048000, -0.048000)" d="M384 550Q352 636 263 636Q217 636 188.0 609.0Q159 582 159 546Q159 509 181.5 485.5Q204 462 238.0 443.0Q272 424 311.0 406.5Q350 389 384.0 363.5Q418 338 440.5 301.5Q463 265 463 208Q463 158 444.0 116.5Q425 75 390.0 45.5Q355 16 306.5 0.5Q258 -15 198 -15Q144 -15 101.5 -3.5Q59 8 37 25Q47 60 54.0 89.0Q61 118 66 152H85Q89 130 100.0 110.5Q111 91 128.0 76.0Q145 61 169.0 52.5Q193 44 223 44Q283 44 311.5 74.0Q340 104 340 146Q340 184 318.0 208.0Q296 232 263.0 250.5Q230 269 191.0 286.5Q152 304 119.0 329.0Q86 354 64.0 390.5Q42 427 42 484Q42 536 60.5 576.0Q79 616 110.0 643.0Q141 670 181.5 684.0Q222 698 267 698Q321 698 361.5 685.0Q402 672 431 649Q422 626 415.5 604.5Q409 583 399 550H384Z"/>
</g>
  <defs>
    <linearGradient id="ashrafic-labs-f5-gradient" x1="0" y1="0" x2="96" y2="96" gradientUnits="userSpaceOnUse">
      <stop offset="0" stop-color="#12352f"/>
      <stop offset="0.56" stop-color="#18443d"/>
      <stop offset="1" stop-color="#263f39"/>
    </linearGradient>
  </defs>
</svg>
