<svg xmlns="http://www.w3.org/2000/svg" viewBox="0 0 400 320" fill="none">
  <rect width="400" height="320" rx="20" fill="#f5f1e8"/>
  
  <!-- Background decorative elements -->
  <circle cx="340" cy="60" r="80" fill="#12352f" opacity="0.05"/>
  <circle cx="60" cy="260" r="60" fill="#b88b4a" opacity="0.08"/>
  
  <!-- Main panel mockup -->
  <rect x="40" y="40" width="320" height="240" rx="12" fill="#ffffff" stroke="#eee6d8" stroke-width="2"/>
  
  <!-- Header -->
  <rect x="40" y="40" width="320" height="48" rx="12" fill="#12352f"/>
  <rect x="40" y="76" width="320" height="12" fill="#12352f"/>
  <circle cx="68" cy="64" r="8" fill="#d7bd8b"/>
  <rect x="84" y="60" width="120" height="8" rx="4" fill="#d7bd8b" opacity="0.6"/>
  
  <!-- Tabs -->
  <rect x="56" y="100" width="80" height="24" rx="6" fill="#31594f" opacity="0.15"/>
  <rect x="60" y="106" width="40" height="12" rx="3" fill="#12352f" opacity="0.3"/>
  <rect x="144" y="100" width="80" height="24" rx="6" fill="transparent" stroke="#eee6d8" stroke-width="1"/>
  <rect x="232" y="100" width="80" height="24" rx="6" fill="transparent" stroke="#eee6d8" stroke-width="1"/>
  
  <!-- Table rows -->
  <rect x="56" y="136" width="288" height="32" rx="6" fill="#fbf8f0" stroke="#eee6d8" stroke-width="1"/>
  <rect x="68" y="146" width="80" height="12" rx="3" fill="#12352f" opacity="0.2"/>
  <rect x="160" y="146" width="160" height="12" rx="3" fill="#31594f" opacity="0.15"/>
  <rect x="328" y="146" width="8" height="12" rx="4" fill="#b88b4a"/>
  
  <rect x="56" y="176" width="288" height="32" rx="6" fill="#fbf8f0" stroke="#eee6d8" stroke-width="1"/>
  <rect x="68" y="186" width="80" height="12" rx="3" fill="#12352f" opacity="0.2"/>
  <rect x="160" y="186" width="120" height="12" rx="3" fill="#31594f" opacity="0.15"/>
  <rect x="328" y="186" width="8" height="12" rx="4" fill="#b88b4a"/>
  
  <rect x="56" y="216" width="288" height="32" rx="6" fill="#fbf8f0" stroke="#eee6d8" stroke-width="1"/>
  <rect x="68" y="226" width="80" height="12" rx="3" fill="#12352f" opacity="0.2"/>
  <rect x="160" y="226" width="140" height="12" rx="3" fill="#31594f" opacity="0.15"/>
  <rect x="328" y="226" width="8" height="12" rx="4" fill="#b88b4a" opacity="0.3"/>
  
  <rect x="56" y="256" width="288" height="32" rx="6" fill="#fbf8f0" stroke="#eee6d8" stroke-width="1"/>
  <rect x="68" y="266" width="80" height="12" rx="3" fill="#12352f" opacity="0.2"/>
  <rect x="160" y="266" width="100" height="12" rx="3" fill="#31594f" opacity="0.15"/>
  <rect x="328" y="266" width="8" height="12" rx="4" fill="#b88b4a" opacity="0.3"/>
  
  <!-- Floating accent -->
  <rect x="320" y="20" width="60" height="28" rx="14" fill="#b88b4a"/>
  <rect x="332" y="30" width="36" height="8" rx="4" fill="#ffffff"/>
</svg>