<svg xmlns="http://www.w3.org/2000/svg" viewBox="0 0 178 32">
  <g shape-rendering="geometricPrecision">
  <path fill="#b88b4a" stroke="#b88b4a" stroke-width="13.5" transform="translate(0.0000, 24) scale(0.026000, -0.026000)" d="M89 408Q89 491 87.0 555.5Q85 620 81 685Q98 683 118.0 681.5Q138 680 163 680Q188 680 208.0 681.5Q228 683 245 685Q241 620 239.0 555.5Q237 491 237 408V272Q237 215 237.5 162.0Q238 109 239 70Q296 70 353.0 73.0Q410 76 468 83Q466 72 465.0 63.0Q464 54 464 38Q464 22 465.0 13.0Q466 4 468 -2Q441 -1 401.5 -0.5Q362 0 293 0Q232 0 194 0Q157 0 134.5 0.0Q112 0 100.5 -0.5Q89 -1 81 -2Q85 60 87.0 124.5Q89 189 89 272V408Z"/>
  <path fill="#b88b4a" stroke="#b88b4a" stroke-width="13.5" transform="translate(12.5000, 24) scale(0.026000, -0.026000)" d="M295 150Q295 193 295.5 215.5Q296 238 296 255Q275 243 251.5 235.5Q228 228 208.5 216.5Q189 205 176.5 185.0Q164 165 164 127Q164 90 179.5 70.5Q195 51 221 51Q254 51 274.5 76.0Q295 101 295 150ZM58 422Q100 456 148.5 474.0Q197 492 245 492Q285 492 318.5 483.0Q352 474 376.5 454.5Q401 435 414.5 404.0Q428 373 428 329Q428 265 426.5 210.5Q425 156 425 102Q425 78 428.5 64.5Q432 51 439.0 44.0Q446 37 457.5 35.0Q469 33 484 33V9Q455 -3 435.0 -9.0Q415 -15 392 -15Q355 -15 332.0 3.0Q309 21 297 55Q274 23 243.5 4.0Q213 -15 167 -15Q129 -15 102.0 -5.0Q75 5 57.5 23.5Q40 42 32.0 65.5Q24 89 24 113Q24 146 34.5 170.0Q45 194 64.5 211.0Q84 228 111.0 239.5Q138 251 172 259Q214 269 238.5 276.5Q263 284 275.0 291.5Q287 299 290.5 308.0Q294 317 294 330Q294 366 268.5 391.5Q243 417 198 417Q181 417 163.0 412.5Q145 408 128.5 400.0Q112 392 98.5 382.5Q85 373 78 362H71Z"/>
  <path fill="#b88b4a" stroke="#b88b4a" stroke-width="13.5" transform="translate(25.0000, 24) scale(0.026000, -0.026000)" d="M197 355Q223 424 260.0 456.5Q297 489 348 489Q353 489 356.5 488.5Q360 488 364 488Q361 473 359.5 456.0Q358 439 358 416V384Q358 376 358 367Q358 358 359 350L350 342Q340 348 327.5 352.0Q315 356 299 356Q254 356 228.0 326.5Q202 297 202 257V217Q202 156 203.5 102.0Q205 48 210 -2Q197 0 177.5 0.0Q158 0 135 0Q112 0 93.0 0.0Q74 0 60 -2Q65 48 66.5 102.0Q68 156 68 217V257Q68 318 66.5 371.5Q65 425 60 479Q77 477 94.5 475.5Q112 474 129 474Q146 474 163.5 475.5Q181 477 198 479L195 357Z"/>
  <path fill="#b88b4a" stroke="#b88b4a" stroke-width="13.5" transform="translate(34.4500, 24) scale(0.026000, -0.026000)" d="M295 150Q295 193 295.5 215.5Q296 238 296 255Q275 243 251.5 235.5Q228 228 208.5 216.5Q189 205 176.5 185.0Q164 165 164 127Q164 90 179.5 70.5Q195 51 221 51Q254 51 274.5 76.0Q295 101 295 150ZM58 422Q100 456 148.5 474.0Q197 492 245 492Q285 492 318.5 483.0Q352 474 376.5 454.5Q401 435 414.5 404.0Q428 373 428 329Q428 265 426.5 210.5Q425 156 425 102Q425 78 428.5 64.5Q432 51 439.0 44.0Q446 37 457.5 35.0Q469 33 484 33V9Q455 -3 435.0 -9.0Q415 -15 392 -15Q355 -15 332.0 3.0Q309 21 297 55Q274 23 243.5 4.0Q213 -15 167 -15Q129 -15 102.0 -5.0Q75 5 57.5 23.5Q40 42 32.0 65.5Q24 89 24 113Q24 146 34.5 170.0Q45 194 64.5 211.0Q84 228 111.0 239.5Q138 251 172 259Q214 269 238.5 276.5Q263 284 275.0 291.5Q287 299 290.5 308.0Q294 317 294 330Q294 366 268.5 391.5Q243 417 198 417Q181 417 163.0 412.5Q145 408 128.5 400.0Q112 392 98.5 382.5Q85 373 78 362H71Z"/>
  <path fill="#b88b4a" stroke="#b88b4a" stroke-width="13.5" transform="translate(46.4100, 24) scale(0.026000, -0.026000)" d="M282 129Q314 217 343.5 304.0Q373 391 402 479Q413 477 423.0 475.5Q433 474 443 474Q453 474 463.0 475.5Q473 477 485 479Q469 440 446.0 388.5Q423 337 397.5 275.5Q372 214 345.5 143.5Q319 73 296 -2Q282 0 269.0 0.0Q256 0 242 0Q228 0 215.0 0.0Q202 0 188 -2Q168 55 143.5 124.0Q119 193 95.0 259.5Q71 326 50.0 384.0Q29 442 15 479Q36 477 55.5 475.5Q75 474 94 474Q113 474 131.5 475.5Q150 477 169 479Q196 391 223.5 304.0Q251 217 280 129H282Z"/>
  <path fill="#b88b4a" stroke="#b88b4a" stroke-width="13.5" transform="translate(58.3600, 24) scale(0.026000, -0.026000)" d="M181 237Q181 197 189.0 162.0Q197 127 213.5 101.5Q230 76 255.5 61.5Q281 47 315 47Q384 47 438 92L450 83L428 27Q403 8 368.0 -3.5Q333 -15 276 -15Q227 -15 183.0 -1.5Q139 12 105.5 43.0Q72 74 52.5 121.5Q33 169 33 235Q33 300 50.5 348.0Q68 396 99.0 428.0Q130 460 172.5 476.0Q215 492 265 492Q364 492 416.5 434.0Q469 376 469 270V249Q469 240 468 237ZM335 282Q333 357 316.5 402.0Q300 447 261 447Q239 447 224.0 432.0Q209 417 200.0 393.5Q191 370 186.5 340.5Q182 311 181 282Z"/>
  <path fill="#b88b4a" stroke="#b88b4a" stroke-width="13.5" transform="translate(70.7000, 24) scale(0.026000, -0.026000)" d="M72 406Q72 504 70.0 586.0Q68 668 64 752Q77 750 97.0 748.5Q117 747 139 747Q161 747 181.0 748.5Q201 750 214 752Q210 668 208.0 586.0Q206 504 206 406V341Q206 243 208.0 161.0Q210 79 214 -2Q201 0 181.0 0.0Q161 0 139 0Q117 0 97.0 0.0Q77 0 64 -2Q68 79 70.0 161.0Q72 243 72 341V406Z"/>
  <path fill="#f5f1e8" stroke="#f5f1e8" stroke-width="13.5" transform="translate(83.4500, 24) scale(0.026000, -0.026000)" d="M299 497Q273 437 250.0 378.5Q227 320 205 259H388Q366 320 344.5 378.5Q323 437 299 497ZM653 -2Q629 0 607.5 0.0Q586 0 565 0Q544 0 522.5 0.0Q501 0 480 -2Q464 47 447.0 98.0Q430 149 411 200Q379 201 347.0 201.5Q315 202 283 202Q257 202 231.0 201.5Q205 201 179 200Q159 149 142.0 98.0Q125 47 111 -2Q99 0 87.5 0.0Q76 0 64 0Q52 0 40.0 0.0Q28 0 14 -2Q26 24 46.0 70.0Q66 116 90.0 174.0Q114 232 141.5 298.5Q169 365 196.5 433.0Q224 501 250.5 567.0Q277 633 299 690Q309 688 318.0 686.5Q327 685 337 685Q347 685 356.0 686.5Q365 688 375 690Q407 605 443.5 508.0Q480 411 517.0 317.5Q554 224 589.0 140.0Q624 56 653 -2Z"/>
  <path fill="#f5f1e8" stroke="#f5f1e8" stroke-width="13.5" transform="translate(100.2800, 24) scale(0.026000, -0.026000)" d="M93 408Q93 491 91.0 555.5Q89 620 85 685Q102 683 122.0 681.5Q142 680 167 680Q192 680 212.0 681.5Q232 683 249 685Q245 620 243.0 555.5Q241 491 241 408V272Q241 189 243.0 124.5Q245 60 249 -2Q232 0 212.0 0.0Q192 0 167 0Q142 0 122.0 0.0Q102 0 85 -2Q89 60 91.0 124.5Q93 189 93 272V408Z"/>
  <path fill="#f5f1e8" stroke="#f5f1e8" stroke-width="13.5" transform="translate(108.4400, 24) scale(0.026000, -0.026000)" d=""/>
  <path fill="#f5f1e8" stroke="#f5f1e8" stroke-width="13.5" transform="translate(115.1700, 24) scale(0.026000, -0.026000)" d="M634 362Q634 427 618.0 478.5Q602 530 573.5 566.0Q545 602 504.5 621.5Q464 641 416 641Q365 641 324.5 616.5Q284 592 256.0 550.0Q228 508 213.5 451.5Q199 395 199 331Q199 251 216.0 196.0Q233 141 262.0 107.5Q291 74 329.0 59.0Q367 44 409 44Q454 44 495.0 63.0Q536 82 566.5 121.0Q597 160 615.5 220.0Q634 280 634 362ZM35 340Q35 414 62.5 479.0Q90 544 140.0 593.0Q190 642 261.0 670.0Q332 698 419 698Q499 698 568.0 676.0Q637 654 688.0 610.0Q739 566 768.5 498.5Q798 431 798 341Q798 266 769.5 201.0Q741 136 690.5 87.5Q640 39 570.0 12.0Q500 -15 416 -15Q337 -15 267.5 4.5Q198 24 146.5 67.5Q95 111 65.0 178.5Q35 246 35 340Z"/>
  <path fill="#f5f1e8" stroke="#f5f1e8" stroke-width="13.5" transform="translate(136.3300, 24) scale(0.026000, -0.026000)" d="M197 355Q223 424 260.0 456.5Q297 489 348 489Q353 489 356.5 488.5Q360 488 364 488Q361 473 359.5 456.0Q358 439 358 416V384Q358 376 358 367Q358 358 359 350L350 342Q340 348 327.5 352.0Q315 356 299 356Q254 356 228.0 326.5Q202 297 202 257V217Q202 156 203.5 102.0Q205 48 210 -2Q197 0 177.5 0.0Q158 0 135 0Q112 0 93.0 0.0Q74 0 60 -2Q65 48 66.5 102.0Q68 156 68 217V257Q68 318 66.5 371.5Q65 425 60 479Q77 477 94.5 475.5Q112 474 129 474Q146 474 163.5 475.5Q181 477 198 479L195 357Z"/>
  <path fill="#f5f1e8" stroke="#f5f1e8" stroke-width="13.5" transform="translate(145.9400, 24) scale(0.026000, -0.026000)" d="M195 234Q195 190 198.5 152.0Q202 114 211.5 86.5Q221 59 237.5 43.0Q254 27 281 27Q324 27 349.5 80.5Q375 134 375 256Q375 430 289 430Q268 430 250.5 420.0Q233 410 220.5 386.5Q208 363 201.5 325.5Q195 288 195 234ZM61 406Q61 504 59.0 586.0Q57 668 53 752Q66 750 86.0 748.5Q106 747 128 747Q150 747 170.0 748.5Q190 750 203 752Q199 668 197.0 586.0Q195 504 195 406H197Q214 448 249.5 470.0Q285 492 330 492Q373 492 408.5 473.0Q444 454 469.5 422.0Q495 390 509.0 346.5Q523 303 523 253Q523 178 502.5 126.5Q482 75 449.5 43.0Q417 11 377.0 -2.0Q337 -15 298 -15Q250 -15 217.0 3.5Q184 22 163 52Q142 40 120.5 24.0Q99 8 77 -6H53Q57 78 59.0 160.5Q61 243 61 341Z"/>
  <path fill="#f5f1e8" stroke="#f5f1e8" stroke-width="13.5" transform="translate(159.9000, 24) scale(0.026000, -0.026000)" d="M60 668Q60 701 83.0 724.0Q106 747 139 747Q172 747 195.0 724.0Q218 701 218 668Q218 635 195.0 612.0Q172 589 139 589Q106 589 83.0 612.0Q60 635 60 668ZM72 257Q72 318 70.5 371.5Q69 425 64 479Q78 477 97.0 475.5Q116 474 139 474Q186 474 214 479Q209 425 207.5 371.5Q206 318 206 257V217Q206 156 207.5 102.0Q209 48 214 -2Q201 0 181.5 0.0Q162 0 139 0Q116 0 97.0 0.0Q78 0 64 -2Q69 48 70.5 102.0Q72 156 72 217Z"/>
  <path fill="#f5f1e8" stroke="#f5f1e8" stroke-width="13.5" transform="translate(166.6300, 24) scale(0.026000, -0.026000)" d="M316 474Q313 459 313 447Q313 434 316 422L228 424Q226 401 224.5 371.0Q223 341 222.5 310.0Q222 279 221.5 250.0Q221 221 221 201Q221 149 223.5 117.0Q226 85 232.0 68.0Q238 51 249.0 45.0Q260 39 277 39Q296 39 305.0 41.5Q314 44 323 49V8Q303 -1 273.0 -8.0Q243 -15 214 -15Q87 -15 87 137Q87 166 88.0 202.5Q89 239 90.5 277.5Q92 316 93.0 353.5Q94 391 94 423L24 422Q27 434 27 447Q27 459 24 474L94 471Q94 502 93.0 529.0Q92 556 90 594Q125 608 159.0 623.5Q193 639 227 656L237 649Q235 633 233.5 611.5Q232 590 230.5 566.5Q229 543 228.5 518.5Q228 494 228 472L316 474Z"/>
</g>
</svg>