<svg xmlns="http://www.w3.org/2000/svg" viewBox="0 0 320 32">
  <g shape-rendering="geometricPrecision">
  <path fill="#b88b4a" stroke="#b88b4a" stroke-width="13.5" transform="translate(0.0000, 24) scale(0.026000, -0.026000)" d="M80 408Q80 491 78.0 555.5Q76 620 72 685Q117 684 161.0 682.0Q205 680 250 680Q324 680 381.5 681.5Q439 683 459 685Q455 669 455 643Q455 627 456.0 618.0Q457 609 459 598Q430 600 395.5 602.0Q361 604 328.5 606.0Q296 608 270.0 609.0Q244 610 233 610Q229 555 228.5 501.0Q228 447 228 392Q293 393 345.5 395.0Q398 397 455 400Q452 383 451.0 374.0Q450 365 450 355Q450 347 451.5 338.5Q453 330 455 314Q341 323 228 323V272Q228 189 230.0 124.5Q232 60 236 -2Q219 0 199.0 0.0Q179 0 154 0Q129 0 109.0 0.0Q89 0 72 -2Q76 60 78.0 124.5Q80 189 80 272V408Z"/>
  <path fill="#b88b4a" stroke="#b88b4a" stroke-width="13.5" transform="translate(12.2700, 24) scale(0.026000, -0.026000)" d="M60 668Q60 701 83.0 724.0Q106 747 139 747Q172 747 195.0 724.0Q218 701 218 668Q218 635 195.0 612.0Q172 589 139 589Q106 589 83.0 612.0Q60 635 60 668ZM72 257Q72 318 70.5 371.5Q69 425 64 479Q78 477 97.0 475.5Q116 474 139 474Q186 474 214 479Q209 425 207.5 371.5Q206 318 206 257V217Q206 156 207.5 102.0Q209 48 214 -2Q201 0 181.5 0.0Q162 0 139 0Q116 0 97.0 0.0Q78 0 64 -2Q69 48 70.5 102.0Q72 156 72 217Z"/>
  <path fill="#b88b4a" stroke="#b88b4a" stroke-width="13.5" transform="translate(18.7600, 24) scale(0.026000, -0.026000)" d="M72 406Q72 504 70.0 586.0Q68 668 64 752Q77 750 97.0 748.5Q117 747 139 747Q161 747 181.0 748.5Q201 750 214 752Q210 668 208.0 586.0Q206 504 206 406V341Q206 243 208.0 161.0Q210 79 214 -2Q201 0 181.0 0.0Q161 0 139 0Q117 0 97.0 0.0Q77 0 64 -2Q68 79 70.0 161.0Q72 243 72 341V406Z"/>
  <path fill="#b88b4a" stroke="#b88b4a" stroke-width="13.5" transform="translate(25.4800, 24) scale(0.026000, -0.026000)" d="M295 150Q295 193 295.5 215.5Q296 238 296 255Q275 243 251.5 235.5Q228 228 208.5 216.5Q189 205 176.5 185.0Q164 165 164 127Q164 90 179.5 70.5Q195 51 221 51Q254 51 274.5 76.0Q295 101 295 150ZM58 422Q100 456 148.5 474.0Q197 492 245 492Q285 492 318.5 483.0Q352 474 376.5 454.5Q401 435 414.5 404.0Q428 373 428 329Q428 265 426.5 210.5Q425 156 425 102Q425 78 428.5 64.5Q432 51 439.0 44.0Q446 37 457.5 35.0Q469 33 484 33V9Q455 -3 435.0 -9.0Q415 -15 392 -15Q355 -15 332.0 3.0Q309 21 297 55Q274 23 243.5 4.0Q213 -15 167 -15Q129 -15 102.0 -5.0Q75 5 57.5 23.5Q40 42 32.0 65.5Q24 89 24 113Q24 146 34.5 170.0Q45 194 64.5 211.0Q84 228 111.0 239.5Q138 251 172 259Q214 269 238.5 276.5Q263 284 275.0 291.5Q287 299 290.5 308.0Q294 317 294 330Q294 366 268.5 391.5Q243 417 198 417Q181 417 163.0 412.5Q145 408 128.5 400.0Q112 392 98.5 382.5Q85 373 78 362H71Z"/>
  <path fill="#b88b4a" stroke="#b88b4a" stroke-width="13.5" transform="translate(37.9800, 24) scale(0.026000, -0.026000)" d="M192 404Q220 446 257.5 469.0Q295 492 343 492Q388 492 420.5 467.5Q453 443 471 397Q501 443 541.0 467.5Q581 492 626 492Q701 492 741.5 448.5Q782 405 782 308Q782 257 780.0 218.0Q778 179 778 140Q778 108 779.5 70.5Q781 33 783 -2Q770 0 750.0 0.0Q730 0 708 0Q686 0 666.0 0.0Q646 0 633 -2Q640 50 642.0 120.5Q644 191 644 282Q644 345 623.0 374.5Q602 404 564 404Q540 404 524.5 393.0Q509 382 500.0 364.5Q491 347 488.0 327.0Q485 307 485 289V217Q485 156 486.5 102.0Q488 48 493 -2Q480 0 460.5 0.0Q441 0 418 0Q395 0 376.0 0.0Q357 0 343 -2Q348 48 349.5 102.0Q351 156 351 217V278Q351 338 336.0 371.0Q321 404 279 404Q234 404 213.0 365.0Q192 326 192 257V217Q192 156 193.5 102.0Q195 48 200 -2Q187 0 167.5 0.0Q148 0 125 0Q102 0 83.0 0.0Q64 0 50 -2Q55 48 56.5 102.0Q58 156 58 217V257Q58 318 56.5 371.5Q55 425 50 479Q68 477 85.5 475.5Q103 474 121 474Q139 474 156.5 475.5Q174 477 194 479L190 404Z"/>
  <path fill="#b88b4a" stroke="#b88b4a" stroke-width="13.5" transform="translate(59.1400, 24) scale(0.026000, -0.026000)" d="M181 237Q181 197 189.0 162.0Q197 127 213.5 101.5Q230 76 255.5 61.5Q281 47 315 47Q384 47 438 92L450 83L428 27Q403 8 368.0 -3.5Q333 -15 276 -15Q227 -15 183.0 -1.5Q139 12 105.5 43.0Q72 74 52.5 121.5Q33 169 33 235Q33 300 50.5 348.0Q68 396 99.0 428.0Q130 460 172.5 476.0Q215 492 265 492Q364 492 416.5 434.0Q469 376 469 270V249Q469 240 468 237ZM335 282Q333 357 316.5 402.0Q300 447 261 447Q239 447 224.0 432.0Q209 417 200.0 393.5Q191 370 186.5 340.5Q182 311 181 282Z"/>
  <path fill="#b88b4a" stroke="#b88b4a" stroke-width="13.5" transform="translate(71.6400, 24) scale(0.026000, -0.026000)" d="M195 404Q223 446 260.5 469.0Q298 492 346 492Q421 492 461.5 448.5Q502 405 502 308Q502 257 500.0 218.0Q498 179 498 140Q498 108 499.5 70.5Q501 33 503 -2Q490 0 470.0 0.0Q450 0 428 0Q406 0 386.0 0.0Q366 0 353 -2Q360 50 362.0 120.5Q364 191 364 282Q364 345 342.5 374.5Q321 404 282 404Q237 404 216.0 365.0Q195 326 195 257V217Q195 156 196.5 102.0Q198 48 203 -2Q190 0 170.5 0.0Q151 0 128 0Q105 0 86.0 0.0Q67 0 53 -2Q58 48 59.5 102.0Q61 156 61 217V257Q61 318 59.5 371.5Q58 425 53 479Q71 477 88.5 475.5Q106 474 124 474Q142 474 159.5 475.5Q177 477 197 479L193 404Z"/>
  <path fill="#b88b4a" stroke="#b88b4a" stroke-width="13.5" transform="translate(85.6000, 24) scale(0.026000, -0.026000)" d="M316 474Q313 459 313 447Q313 434 316 422L228 424Q226 401 224.5 371.0Q223 341 222.5 310.0Q222 279 221.5 250.0Q221 221 221 201Q221 149 223.5 117.0Q226 85 232.0 68.0Q238 51 249.0 45.0Q260 39 277 39Q296 39 305.0 41.5Q314 44 323 49V8Q303 -1 273.0 -8.0Q243 -15 214 -15Q87 -15 87 137Q87 166 88.0 202.5Q89 239 90.5 277.5Q92 316 93.0 353.5Q94 391 94 423L24 422Q27 434 27 447Q27 459 24 474L94 471Q94 502 93.0 529.0Q92 556 90 594Q125 608 159.0 623.5Q193 639 227 656L237 649Q235 633 233.5 611.5Q232 590 230.5 566.5Q229 543 228.5 518.5Q228 494 228 472L316 474Z"/>
  <path fill="#f5f1e8" stroke="#f5f1e8" stroke-width="13.5" transform="translate(99.7700, 24) scale(0.026000, -0.026000)" d="M237 199V139Q237 110 237.5 86.0Q238 62 238 55Q253 54 274.0 53.0Q295 52 326 52Q439 52 505.0 129.0Q571 206 571 362Q571 424 554.5 473.0Q538 522 508.0 556.5Q478 591 436.0 609.5Q394 628 342 628Q306 628 283.5 626.5Q261 625 238 623Q238 616 237.5 592.0Q237 568 237 538V478V428V250ZM89 408Q89 491 87.0 555.5Q85 620 81 685Q98 683 118.0 681.5Q138 680 163 680Q196 680 237.0 682.5Q278 685 344 685Q430 685 500.5 669.5Q571 654 622.0 617.0Q673 580 701.0 517.5Q729 455 729 360Q729 277 701.5 210.0Q674 143 626.5 95.5Q579 48 516.5 23.0Q454 -2 383 -2Q308 -2 255.0 -1.0Q202 0 163 0Q138 0 118.0 0.0Q98 0 81 -2Q85 60 87.0 124.5Q89 189 89 272Z"/>
  <path fill="#f5f1e8" stroke="#f5f1e8" stroke-width="13.5" transform="translate(119.4900, 24) scale(0.026000, -0.026000)" d="M361 70Q333 28 295.5 6.5Q258 -15 210 -15Q135 -15 94.5 27.0Q54 69 54 166Q54 217 56.0 256.0Q58 295 58 334Q58 366 56.5 403.5Q55 441 53 479Q66 477 86.0 475.5Q106 474 128 474Q150 474 170.0 475.5Q190 477 203 479Q196 425 194.0 354.0Q192 283 192 192Q192 129 213.5 99.5Q235 70 274 70Q319 70 340.0 109.0Q361 148 361 217V257Q361 318 359.5 371.5Q358 425 353 479Q381 474 428 474Q451 474 470.0 475.5Q489 477 503 479Q498 425 496.5 371.5Q495 318 495 257V217Q495 156 496.5 102.0Q498 48 503 -2Q485 0 467.5 0.0Q450 0 432 0Q414 0 396.5 0.0Q379 0 359 -2L363 70Z"/>
  <path fill="#f5f1e8" stroke="#f5f1e8" stroke-width="13.5" transform="translate(133.4500, 24) scale(0.026000, -0.026000)" d="M61 133Q61 231 59.0 313.0Q57 395 53 479Q70 477 88.0 475.5Q106 474 123 474Q140 474 157.5 475.5Q175 477 192 479Q190 462 187.5 438.5Q185 415 185 393H187Q201 435 238.0 463.5Q275 492 329 492Q367 492 402.0 478.0Q437 464 464.0 434.0Q491 404 507.0 357.0Q523 310 523 245Q523 174 506.0 124.0Q489 74 461.5 42.5Q434 11 398.5 -2.0Q363 -15 326 -15Q281 -15 248.0 2.0Q215 19 197 55H195V-26Q195 -61 195.5 -97.5Q196 -134 197.0 -167.0Q198 -200 199.5 -226.0Q201 -252 203 -265Q190 -263 170.0 -261.5Q150 -260 128 -260Q106 -260 86.0 -261.5Q66 -263 53 -265Q55 -223 56.5 -182.0Q58 -141 59.0 -99.0Q60 -57 60.5 -14.0Q61 29 61 78ZM375 242Q375 341 350.5 385.5Q326 430 286 430Q267 430 250.0 419.0Q233 408 219.5 384.0Q206 360 198.0 321.0Q190 282 190 226Q190 135 213.5 91.5Q237 48 282 48Q325 48 350.0 95.0Q375 142 375 242Z"/>
  <path fill="#f5f1e8" stroke="#f5f1e8" stroke-width="13.5" transform="translate(147.4000, 24) scale(0.026000, -0.026000)" d="M72 406Q72 504 70.0 586.0Q68 668 64 752Q77 750 97.0 748.5Q117 747 139 747Q161 747 181.0 748.5Q201 750 214 752Q210 668 208.0 586.0Q206 504 206 406V341Q206 243 208.0 161.0Q210 79 214 -2Q201 0 181.0 0.0Q161 0 139 0Q117 0 97.0 0.0Q77 0 64 -2Q68 79 70.0 161.0Q72 243 72 341V406Z"/>
  <path fill="#f5f1e8" stroke="#f5f1e8" stroke-width="13.5" transform="translate(154.1300, 24) scale(0.026000, -0.026000)" d="M60 668Q60 701 83.0 724.0Q106 747 139 747Q172 747 195.0 724.0Q218 701 218 668Q218 635 195.0 612.0Q172 589 139 589Q106 589 83.0 612.0Q60 635 60 668ZM72 257Q72 318 70.5 371.5Q69 425 64 479Q78 477 97.0 475.5Q116 474 139 474Q186 474 214 479Q209 425 207.5 371.5Q206 318 206 257V217Q206 156 207.5 102.0Q209 48 214 -2Q201 0 181.5 0.0Q162 0 139 0Q116 0 97.0 0.0Q78 0 64 -2Q69 48 70.5 102.0Q72 156 72 217Z"/>
  <path fill="#f5f1e8" stroke="#f5f1e8" stroke-width="13.5" transform="translate(160.8600, 24) scale(0.026000, -0.026000)" d="M417 341Q409 386 385.5 413.5Q362 441 316 441Q256 441 226.0 386.5Q196 332 196 235Q196 144 234.0 95.5Q272 47 345 47Q376 47 405.0 61.5Q434 76 448 94L460 84Q453 70 448.0 55.0Q443 40 438 25Q416 8 382.5 -3.5Q349 -15 303 -15Q230 -15 180.0 6.0Q130 27 99.5 63.0Q69 99 56.0 144.5Q43 190 43 236Q43 291 61.5 338.0Q80 385 114.5 419.0Q149 453 198.0 472.5Q247 492 307 492Q364 492 403.5 479.0Q443 466 479 445Q467 425 456.5 396.0Q446 367 441 341H417Z"/>
  <path fill="#f5f1e8" stroke="#f5f1e8" stroke-width="13.5" transform="translate(173.3600, 24) scale(0.026000, -0.026000)" d="M295 150Q295 193 295.5 215.5Q296 238 296 255Q275 243 251.5 235.5Q228 228 208.5 216.5Q189 205 176.5 185.0Q164 165 164 127Q164 90 179.5 70.5Q195 51 221 51Q254 51 274.5 76.0Q295 101 295 150ZM58 422Q100 456 148.5 474.0Q197 492 245 492Q285 492 318.5 483.0Q352 474 376.5 454.5Q401 435 414.5 404.0Q428 373 428 329Q428 265 426.5 210.5Q425 156 425 102Q425 78 428.5 64.5Q432 51 439.0 44.0Q446 37 457.5 35.0Q469 33 484 33V9Q455 -3 435.0 -9.0Q415 -15 392 -15Q355 -15 332.0 3.0Q309 21 297 55Q274 23 243.5 4.0Q213 -15 167 -15Q129 -15 102.0 -5.0Q75 5 57.5 23.5Q40 42 32.0 65.5Q24 89 24 113Q24 146 34.5 170.0Q45 194 64.5 211.0Q84 228 111.0 239.5Q138 251 172 259Q214 269 238.5 276.5Q263 284 275.0 291.5Q287 299 290.5 308.0Q294 317 294 330Q294 366 268.5 391.5Q243 417 198 417Q181 417 163.0 412.5Q145 408 128.5 400.0Q112 392 98.5 382.5Q85 373 78 362H71Z"/>
  <path fill="#f5f1e8" stroke="#f5f1e8" stroke-width="13.5" transform="translate(185.8600, 24) scale(0.026000, -0.026000)" d="M316 474Q313 459 313 447Q313 434 316 422L228 424Q226 401 224.5 371.0Q223 341 222.5 310.0Q222 279 221.5 250.0Q221 221 221 201Q221 149 223.5 117.0Q226 85 232.0 68.0Q238 51 249.0 45.0Q260 39 277 39Q296 39 305.0 41.5Q314 44 323 49V8Q303 -1 273.0 -8.0Q243 -15 214 -15Q87 -15 87 137Q87 166 88.0 202.5Q89 239 90.5 277.5Q92 316 93.0 353.5Q94 391 94 423L24 422Q27 434 27 447Q27 459 24 474L94 471Q94 502 93.0 529.0Q92 556 90 594Q125 608 159.0 623.5Q193 639 227 656L237 649Q235 633 233.5 611.5Q232 590 230.5 566.5Q229 543 228.5 518.5Q228 494 228 472L316 474Z"/>
  <path fill="#f5f1e8" stroke="#f5f1e8" stroke-width="13.5" transform="translate(194.0200, 24) scale(0.026000, -0.026000)" d="M181 237Q181 197 189.0 162.0Q197 127 213.5 101.5Q230 76 255.5 61.5Q281 47 315 47Q384 47 438 92L450 83L428 27Q403 8 368.0 -3.5Q333 -15 276 -15Q227 -15 183.0 -1.5Q139 12 105.5 43.0Q72 74 52.5 121.5Q33 169 33 235Q33 300 50.5 348.0Q68 396 99.0 428.0Q130 460 172.5 476.0Q215 492 265 492Q364 492 416.5 434.0Q469 376 469 270V249Q469 240 468 237ZM335 282Q333 357 316.5 402.0Q300 447 261 447Q239 447 224.0 432.0Q209 417 200.0 393.5Q191 370 186.5 340.5Q182 311 181 282Z"/>
  <path fill="#f5f1e8" stroke="#f5f1e8" stroke-width="13.5" transform="translate(206.5200, 24) scale(0.026000, -0.026000)" d=""/>
  <path fill="#f5f1e8" stroke="#f5f1e8" stroke-width="13.5" transform="translate(213.2400, 24) scale(0.026000, -0.026000)" d="M237 199V139Q237 110 237.5 86.0Q238 62 238 55Q253 54 274.0 53.0Q295 52 326 52Q439 52 505.0 129.0Q571 206 571 362Q571 424 554.5 473.0Q538 522 508.0 556.5Q478 591 436.0 609.5Q394 628 342 628Q306 628 283.5 626.5Q261 625 238 623Q238 616 237.5 592.0Q237 568 237 538V478V428V250ZM89 408Q89 491 87.0 555.5Q85 620 81 685Q98 683 118.0 681.5Q138 680 163 680Q196 680 237.0 682.5Q278 685 344 685Q430 685 500.5 669.5Q571 654 622.0 617.0Q673 580 701.0 517.5Q729 455 729 360Q729 277 701.5 210.0Q674 143 626.5 95.5Q579 48 516.5 23.0Q454 -2 383 -2Q308 -2 255.0 -1.0Q202 0 163 0Q138 0 118.0 0.0Q98 0 81 -2Q85 60 87.0 124.5Q89 189 89 272Z"/>
  <path fill="#f5f1e8" stroke="#f5f1e8" stroke-width="13.5" transform="translate(232.9700, 24) scale(0.026000, -0.026000)" d="M181 237Q181 197 189.0 162.0Q197 127 213.5 101.5Q230 76 255.5 61.5Q281 47 315 47Q384 47 438 92L450 83L428 27Q403 8 368.0 -3.5Q333 -15 276 -15Q227 -15 183.0 -1.5Q139 12 105.5 43.0Q72 74 52.5 121.5Q33 169 33 235Q33 300 50.5 348.0Q68 396 99.0 428.0Q130 460 172.5 476.0Q215 492 265 492Q364 492 416.5 434.0Q469 376 469 270V249Q469 240 468 237ZM335 282Q333 357 316.5 402.0Q300 447 261 447Q239 447 224.0 432.0Q209 417 200.0 393.5Q191 370 186.5 340.5Q182 311 181 282Z"/>
  <path fill="#f5f1e8" stroke="#f5f1e8" stroke-width="13.5" transform="translate(245.4700, 24) scale(0.026000, -0.026000)" d="M316 474Q313 459 313 447Q313 434 316 422L228 424Q226 401 224.5 371.0Q223 341 222.5 310.0Q222 279 221.5 250.0Q221 221 221 201Q221 149 223.5 117.0Q226 85 232.0 68.0Q238 51 249.0 45.0Q260 39 277 39Q296 39 305.0 41.5Q314 44 323 49V8Q303 -1 273.0 -8.0Q243 -15 214 -15Q87 -15 87 137Q87 166 88.0 202.5Q89 239 90.5 277.5Q92 316 93.0 353.5Q94 391 94 423L24 422Q27 434 27 447Q27 459 24 474L94 471Q94 502 93.0 529.0Q92 556 90 594Q125 608 159.0 623.5Q193 639 227 656L237 649Q235 633 233.5 611.5Q232 590 230.5 566.5Q229 543 228.5 518.5Q228 494 228 472L316 474Z"/>
  <path fill="#f5f1e8" stroke="#f5f1e8" stroke-width="13.5" transform="translate(253.6300, 24) scale(0.026000, -0.026000)" d="M181 237Q181 197 189.0 162.0Q197 127 213.5 101.5Q230 76 255.5 61.5Q281 47 315 47Q384 47 438 92L450 83L428 27Q403 8 368.0 -3.5Q333 -15 276 -15Q227 -15 183.0 -1.5Q139 12 105.5 43.0Q72 74 52.5 121.5Q33 169 33 235Q33 300 50.5 348.0Q68 396 99.0 428.0Q130 460 172.5 476.0Q215 492 265 492Q364 492 416.5 434.0Q469 376 469 270V249Q469 240 468 237ZM335 282Q333 357 316.5 402.0Q300 447 261 447Q239 447 224.0 432.0Q209 417 200.0 393.5Q191 370 186.5 340.5Q182 311 181 282Z"/>
  <path fill="#f5f1e8" stroke="#f5f1e8" stroke-width="13.5" transform="translate(266.1300, 24) scale(0.026000, -0.026000)" d="M417 341Q409 386 385.5 413.5Q362 441 316 441Q256 441 226.0 386.5Q196 332 196 235Q196 144 234.0 95.5Q272 47 345 47Q376 47 405.0 61.5Q434 76 448 94L460 84Q453 70 448.0 55.0Q443 40 438 25Q416 8 382.5 -3.5Q349 -15 303 -15Q230 -15 180.0 6.0Q130 27 99.5 63.0Q69 99 56.0 144.5Q43 190 43 236Q43 291 61.5 338.0Q80 385 114.5 419.0Q149 453 198.0 472.5Q247 492 307 492Q364 492 403.5 479.0Q443 466 479 445Q467 425 456.5 396.0Q446 367 441 341H417Z"/>
  <path fill="#f5f1e8" stroke="#f5f1e8" stroke-width="13.5" transform="translate(278.6300, 24) scale(0.026000, -0.026000)" d="M316 474Q313 459 313 447Q313 434 316 422L228 424Q226 401 224.5 371.0Q223 341 222.5 310.0Q222 279 221.5 250.0Q221 221 221 201Q221 149 223.5 117.0Q226 85 232.0 68.0Q238 51 249.0 45.0Q260 39 277 39Q296 39 305.0 41.5Q314 44 323 49V8Q303 -1 273.0 -8.0Q243 -15 214 -15Q87 -15 87 137Q87 166 88.0 202.5Q89 239 90.5 277.5Q92 316 93.0 353.5Q94 391 94 423L24 422Q27 434 27 447Q27 459 24 474L94 471Q94 502 93.0 529.0Q92 556 90 594Q125 608 159.0 623.5Q193 639 227 656L237 649Q235 633 233.5 611.5Q232 590 230.5 566.5Q229 543 228.5 518.5Q228 494 228 472L316 474Z"/>
  <path fill="#f5f1e8" stroke="#f5f1e8" stroke-width="13.5" transform="translate(286.7900, 24) scale(0.026000, -0.026000)" d="M60 668Q60 701 83.0 724.0Q106 747 139 747Q172 747 195.0 724.0Q218 701 218 668Q218 635 195.0 612.0Q172 589 139 589Q106 589 83.0 612.0Q60 635 60 668ZM72 257Q72 318 70.5 371.5Q69 425 64 479Q78 477 97.0 475.5Q116 474 139 474Q186 474 214 479Q209 425 207.5 371.5Q206 318 206 257V217Q206 156 207.5 102.0Q209 48 214 -2Q201 0 181.5 0.0Q162 0 139 0Q116 0 97.0 0.0Q78 0 64 -2Q69 48 70.5 102.0Q72 156 72 217Z"/>
  <path fill="#f5f1e8" stroke="#f5f1e8" stroke-width="13.5" transform="translate(293.2800, 24) scale(0.026000, -0.026000)" d="M282 129Q314 217 343.5 304.0Q373 391 402 479Q413 477 423.0 475.5Q433 474 443 474Q453 474 463.0 475.5Q473 477 485 479Q469 440 446.0 388.5Q423 337 397.5 275.5Q372 214 345.5 143.5Q319 73 296 -2Q282 0 269.0 0.0Q256 0 242 0Q228 0 215.0 0.0Q202 0 188 -2Q168 55 143.5 124.0Q119 193 95.0 259.5Q71 326 50.0 384.0Q29 442 15 479Q36 477 55.5 475.5Q75 474 94 474Q113 474 131.5 475.5Q150 477 169 479Q196 391 223.5 304.0Q251 217 280 129H282Z"/>
  <path fill="#f5f1e8" stroke="#f5f1e8" stroke-width="13.5" transform="translate(305.3900, 24) scale(0.026000, -0.026000)" d="M181 237Q181 197 189.0 162.0Q197 127 213.5 101.5Q230 76 255.5 61.5Q281 47 315 47Q384 47 438 92L450 83L428 27Q403 8 368.0 -3.5Q333 -15 276 -15Q227 -15 183.0 -1.5Q139 12 105.5 43.0Q72 74 52.5 121.5Q33 169 33 235Q33 300 50.5 348.0Q68 396 99.0 428.0Q130 460 172.5 476.0Q215 492 265 492Q364 492 416.5 434.0Q469 376 469 270V249Q469 240 468 237ZM335 282Q333 357 316.5 402.0Q300 447 261 447Q239 447 224.0 432.0Q209 417 200.0 393.5Q191 370 186.5 340.5Q182 311 181 282Z"/>
</g>
</svg>