<svg xmlns="http://www.w3.org/2000/svg" viewBox="0 0 280 32">
  <g shape-rendering="geometricPrecision">
  <path fill="#b88b4a" stroke="#b88b4a" stroke-width="13.5" transform="translate(0.0000, 24) scale(0.026000, -0.026000)" d="M80 408Q80 491 78.0 555.5Q76 620 72 685Q117 684 161.0 682.0Q205 680 250 680Q324 680 381.5 681.5Q439 683 459 685Q455 669 455 643Q455 627 456.0 618.0Q457 609 459 598Q430 600 395.5 602.0Q361 604 328.5 606.0Q296 608 270.0 609.0Q244 610 233 610Q229 555 228.5 501.0Q228 447 228 392Q293 393 345.5 395.0Q398 397 455 400Q452 383 451.0 374.0Q450 365 450 355Q450 347 451.5 338.5Q453 330 455 314Q341 323 228 323V272Q228 189 230.0 124.5Q232 60 236 -2Q219 0 199.0 0.0Q179 0 154 0Q129 0 109.0 0.0Q89 0 72 -2Q76 60 78.0 124.5Q80 189 80 272V408Z"/>
  <path fill="#b88b4a" stroke="#b88b4a" stroke-width="13.5" transform="translate(12.2700, 24) scale(0.026000, -0.026000)" d="M60 668Q60 701 83.0 724.0Q106 747 139 747Q172 747 195.0 724.0Q218 701 218 668Q218 635 195.0 612.0Q172 589 139 589Q106 589 83.0 612.0Q60 635 60 668ZM72 257Q72 318 70.5 371.5Q69 425 64 479Q78 477 97.0 475.5Q116 474 139 474Q186 474 214 479Q209 425 207.5 371.5Q206 318 206 257V217Q206 156 207.5 102.0Q209 48 214 -2Q201 0 181.5 0.0Q162 0 139 0Q116 0 97.0 0.0Q78 0 64 -2Q69 48 70.5 102.0Q72 156 72 217Z"/>
  <path fill="#b88b4a" stroke="#b88b4a" stroke-width="13.5" transform="translate(18.7600, 24) scale(0.026000, -0.026000)" d="M72 406Q72 504 70.0 586.0Q68 668 64 752Q77 750 97.0 748.5Q117 747 139 747Q161 747 181.0 748.5Q201 750 214 752Q210 668 208.0 586.0Q206 504 206 406V341Q206 243 208.0 161.0Q210 79 214 -2Q201 0 181.0 0.0Q161 0 139 0Q117 0 97.0 0.0Q77 0 64 -2Q68 79 70.0 161.0Q72 243 72 341V406Z"/>
  <path fill="#b88b4a" stroke="#b88b4a" stroke-width="13.5" transform="translate(25.4800, 24) scale(0.026000, -0.026000)" d="M295 150Q295 193 295.5 215.5Q296 238 296 255Q275 243 251.5 235.5Q228 228 208.5 216.5Q189 205 176.5 185.0Q164 165 164 127Q164 90 179.5 70.5Q195 51 221 51Q254 51 274.5 76.0Q295 101 295 150ZM58 422Q100 456 148.5 474.0Q197 492 245 492Q285 492 318.5 483.0Q352 474 376.5 454.5Q401 435 414.5 404.0Q428 373 428 329Q428 265 426.5 210.5Q425 156 425 102Q425 78 428.5 64.5Q432 51 439.0 44.0Q446 37 457.5 35.0Q469 33 484 33V9Q455 -3 435.0 -9.0Q415 -15 392 -15Q355 -15 332.0 3.0Q309 21 297 55Q274 23 243.5 4.0Q213 -15 167 -15Q129 -15 102.0 -5.0Q75 5 57.5 23.5Q40 42 32.0 65.5Q24 89 24 113Q24 146 34.5 170.0Q45 194 64.5 211.0Q84 228 111.0 239.5Q138 251 172 259Q214 269 238.5 276.5Q263 284 275.0 291.5Q287 299 290.5 308.0Q294 317 294 330Q294 366 268.5 391.5Q243 417 198 417Q181 417 163.0 412.5Q145 408 128.5 400.0Q112 392 98.5 382.5Q85 373 78 362H71Z"/>
  <path fill="#b88b4a" stroke="#b88b4a" stroke-width="13.5" transform="translate(37.9800, 24) scale(0.026000, -0.026000)" d="M192 404Q220 446 257.5 469.0Q295 492 343 492Q388 492 420.5 467.5Q453 443 471 397Q501 443 541.0 467.5Q581 492 626 492Q701 492 741.5 448.5Q782 405 782 308Q782 257 780.0 218.0Q778 179 778 140Q778 108 779.5 70.5Q781 33 783 -2Q770 0 750.0 0.0Q730 0 708 0Q686 0 666.0 0.0Q646 0 633 -2Q640 50 642.0 120.5Q644 191 644 282Q644 345 623.0 374.5Q602 404 564 404Q540 404 524.5 393.0Q509 382 500.0 364.5Q491 347 488.0 327.0Q485 307 485 289V217Q485 156 486.5 102.0Q488 48 493 -2Q480 0 460.5 0.0Q441 0 418 0Q395 0 376.0 0.0Q357 0 343 -2Q348 48 349.5 102.0Q351 156 351 217V278Q351 338 336.0 371.0Q321 404 279 404Q234 404 213.0 365.0Q192 326 192 257V217Q192 156 193.5 102.0Q195 48 200 -2Q187 0 167.5 0.0Q148 0 125 0Q102 0 83.0 0.0Q64 0 50 -2Q55 48 56.5 102.0Q58 156 58 217V257Q58 318 56.5 371.5Q55 425 50 479Q68 477 85.5 475.5Q103 474 121 474Q139 474 156.5 475.5Q174 477 194 479L190 404Z"/>
  <path fill="#b88b4a" stroke="#b88b4a" stroke-width="13.5" transform="translate(59.1400, 24) scale(0.026000, -0.026000)" d="M181 237Q181 197 189.0 162.0Q197 127 213.5 101.5Q230 76 255.5 61.5Q281 47 315 47Q384 47 438 92L450 83L428 27Q403 8 368.0 -3.5Q333 -15 276 -15Q227 -15 183.0 -1.5Q139 12 105.5 43.0Q72 74 52.5 121.5Q33 169 33 235Q33 300 50.5 348.0Q68 396 99.0 428.0Q130 460 172.5 476.0Q215 492 265 492Q364 492 416.5 434.0Q469 376 469 270V249Q469 240 468 237ZM335 282Q333 357 316.5 402.0Q300 447 261 447Q239 447 224.0 432.0Q209 417 200.0 393.5Q191 370 186.5 340.5Q182 311 181 282Z"/>
  <path fill="#b88b4a" stroke="#b88b4a" stroke-width="13.5" transform="translate(71.6400, 24) scale(0.026000, -0.026000)" d="M195 404Q223 446 260.5 469.0Q298 492 346 492Q421 492 461.5 448.5Q502 405 502 308Q502 257 500.0 218.0Q498 179 498 140Q498 108 499.5 70.5Q501 33 503 -2Q490 0 470.0 0.0Q450 0 428 0Q406 0 386.0 0.0Q366 0 353 -2Q360 50 362.0 120.5Q364 191 364 282Q364 345 342.5 374.5Q321 404 282 404Q237 404 216.0 365.0Q195 326 195 257V217Q195 156 196.5 102.0Q198 48 203 -2Q190 0 170.5 0.0Q151 0 128 0Q105 0 86.0 0.0Q67 0 53 -2Q58 48 59.5 102.0Q61 156 61 217V257Q61 318 59.5 371.5Q58 425 53 479Q71 477 88.5 475.5Q106 474 124 474Q142 474 159.5 475.5Q177 477 197 479L193 404Z"/>
  <path fill="#b88b4a" stroke="#b88b4a" stroke-width="13.5" transform="translate(85.6000, 24) scale(0.026000, -0.026000)" d="M316 474Q313 459 313 447Q313 434 316 422L228 424Q226 401 224.5 371.0Q223 341 222.5 310.0Q222 279 221.5 250.0Q221 221 221 201Q221 149 223.5 117.0Q226 85 232.0 68.0Q238 51 249.0 45.0Q260 39 277 39Q296 39 305.0 41.5Q314 44 323 49V8Q303 -1 273.0 -8.0Q243 -15 214 -15Q87 -15 87 137Q87 166 88.0 202.5Q89 239 90.5 277.5Q92 316 93.0 353.5Q94 391 94 423L24 422Q27 434 27 447Q27 459 24 474L94 471Q94 502 93.0 529.0Q92 556 90 594Q125 608 159.0 623.5Q193 639 227 656L237 649Q235 633 233.5 611.5Q232 590 230.5 566.5Q229 543 228.5 518.5Q228 494 228 472L316 474Z"/>
  <path fill="#171717" stroke="#171717" stroke-width="13.5" transform="translate(99.7700, 24) scale(0.026000, -0.026000)" d="M207 522Q207 551 206.5 575.0Q206 599 204 610Q189 610 167.0 609.0Q145 608 120.0 606.5Q95 605 69.0 602.5Q43 600 21 597Q23 608 24.5 619.0Q26 630 26 641Q26 652 24.5 663.0Q23 674 21 685Q55 684 82.5 683.0Q110 682 138.5 681.5Q167 681 200.5 680.5Q234 680 281 680Q328 680 361.5 680.5Q395 681 423.0 681.5Q451 682 477.5 683.0Q504 684 535 685Q533 674 531.5 663.0Q530 652 530 641Q530 630 531.5 619.0Q533 608 535 597Q515 600 490.0 602.5Q465 605 440.5 606.5Q416 608 394.0 609.0Q372 610 357 610Q356 605 355.5 596.0Q355 587 355 575V522V272Q355 189 357.0 124.5Q359 60 363 -2Q346 0 326.0 0.0Q306 0 281 0Q256 0 236.0 0.0Q216 0 199 -2Q203 60 205.0 124.5Q207 189 207 272V522Z"/>
  <path fill="#171717" stroke="#171717" stroke-width="13.5" transform="translate(112.7600, 24) scale(0.026000, -0.026000)" d="M197 355Q223 424 260.0 456.5Q297 489 348 489Q353 489 356.5 488.5Q360 488 364 488Q361 473 359.5 456.0Q358 439 358 416V384Q358 376 358 367Q358 358 359 350L350 342Q340 348 327.5 352.0Q315 356 299 356Q254 356 228.0 326.5Q202 297 202 257V217Q202 156 203.5 102.0Q205 48 210 -2Q197 0 177.5 0.0Q158 0 135 0Q112 0 93.0 0.0Q74 0 60 -2Q65 48 66.5 102.0Q68 156 68 217V257Q68 318 66.5 371.5Q65 425 60 479Q77 477 94.5 475.5Q112 474 129 474Q146 474 163.5 475.5Q181 477 198 479L195 357Z"/>
  <path fill="#171717" stroke="#171717" stroke-width="13.5" transform="translate(121.2500, 24) scale(0.026000, -0.026000)" d="M295 150Q295 193 295.5 215.5Q296 238 296 255Q275 243 251.5 235.5Q228 228 208.5 216.5Q189 205 176.5 185.0Q164 165 164 127Q164 90 179.5 70.5Q195 51 221 51Q254 51 274.5 76.0Q295 101 295 150ZM58 422Q100 456 148.5 474.0Q197 492 245 492Q285 492 318.5 483.0Q352 474 376.5 454.5Q401 435 414.5 404.0Q428 373 428 329Q428 265 426.5 210.5Q425 156 425 102Q425 78 428.5 64.5Q432 51 439.0 44.0Q446 37 457.5 35.0Q469 33 484 33V9Q455 -3 435.0 -9.0Q415 -15 392 -15Q355 -15 332.0 3.0Q309 21 297 55Q274 23 243.5 4.0Q213 -15 167 -15Q129 -15 102.0 -5.0Q75 5 57.5 23.5Q40 42 32.0 65.5Q24 89 24 113Q24 146 34.5 170.0Q45 194 64.5 211.0Q84 228 111.0 239.5Q138 251 172 259Q214 269 238.5 276.5Q263 284 275.0 291.5Q287 299 290.5 308.0Q294 317 294 330Q294 366 268.5 391.5Q243 417 198 417Q181 417 163.0 412.5Q145 408 128.5 400.0Q112 392 98.5 382.5Q85 373 78 362H71Z"/>
  <path fill="#171717" stroke="#171717" stroke-width="13.5" transform="translate(133.5900, 24) scale(0.026000, -0.026000)" d="M195 404Q223 446 260.5 469.0Q298 492 346 492Q421 492 461.5 448.5Q502 405 502 308Q502 257 500.0 218.0Q498 179 498 140Q498 108 499.5 70.5Q501 33 503 -2Q490 0 470.0 0.0Q450 0 428 0Q406 0 386.0 0.0Q366 0 353 -2Q360 50 362.0 120.5Q364 191 364 282Q364 345 342.5 374.5Q321 404 282 404Q237 404 216.0 365.0Q195 326 195 257V217Q195 156 196.5 102.0Q198 48 203 -2Q190 0 170.5 0.0Q151 0 128 0Q105 0 86.0 0.0Q67 0 53 -2Q58 48 59.5 102.0Q61 156 61 217V257Q61 318 59.5 371.5Q58 425 53 479Q71 477 88.5 475.5Q106 474 124 474Q142 474 159.5 475.5Q177 477 197 479L193 404Z"/>
  <path fill="#171717" stroke="#171717" stroke-width="13.5" transform="translate(147.5500, 24) scale(0.026000, -0.026000)" d="M69 121Q75 105 84.5 90.5Q94 76 108.0 64.5Q122 53 141.5 46.0Q161 39 187 39Q222 39 241.0 57.0Q260 75 260 96Q260 119 243.0 133.0Q226 147 200.5 158.5Q175 170 145.0 182.0Q115 194 89.5 212.5Q64 231 47.0 259.0Q30 287 30 331Q30 373 45.5 403.5Q61 434 86.0 453.5Q111 473 142.5 482.5Q174 492 205 492Q247 492 279.5 480.0Q312 468 346 445Q337 425 331.0 402.0Q325 379 322 357H294Q291 369 284.0 383.5Q277 398 265.0 411.0Q253 424 236.0 432.5Q219 441 195 441Q165 441 144.5 425.0Q124 409 124 383Q124 359 141.5 344.5Q159 330 185.0 319.0Q211 308 242.0 297.0Q273 286 299.0 268.5Q325 251 342.5 223.0Q360 195 360 151Q360 107 344.0 75.5Q328 44 301.0 23.5Q274 3 239.5 -6.0Q205 -15 167 -15Q122 -15 86.0 -2.0Q50 11 29 25Q41 73 44 121H69Z"/>
  <path fill="#171717" stroke="#171717" stroke-width="13.5" transform="translate(157.1600, 24) scale(0.026000, -0.026000)" d="M72 406Q72 504 70.0 586.0Q68 668 64 752Q77 750 97.0 748.5Q117 747 139 747Q161 747 181.0 748.5Q201 750 214 752Q210 668 208.0 586.0Q206 504 206 406V341Q206 243 208.0 161.0Q210 79 214 -2Q201 0 181.0 0.0Q161 0 139 0Q117 0 97.0 0.0Q77 0 64 -2Q68 79 70.0 161.0Q72 243 72 341V406Z"/>
  <path fill="#171717" stroke="#171717" stroke-width="13.5" transform="translate(163.8900, 24) scale(0.026000, -0.026000)" d="M295 150Q295 193 295.5 215.5Q296 238 296 255Q275 243 251.5 235.5Q228 228 208.5 216.5Q189 205 176.5 185.0Q164 165 164 127Q164 90 179.5 70.5Q195 51 221 51Q254 51 274.5 76.0Q295 101 295 150ZM58 422Q100 456 148.5 474.0Q197 492 245 492Q285 492 318.5 483.0Q352 474 376.5 454.5Q401 435 414.5 404.0Q428 373 428 329Q428 265 426.5 210.5Q425 156 425 102Q425 78 428.5 64.5Q432 51 439.0 44.0Q446 37 457.5 35.0Q469 33 484 33V9Q455 -3 435.0 -9.0Q415 -15 392 -15Q355 -15 332.0 3.0Q309 21 297 55Q274 23 243.5 4.0Q213 -15 167 -15Q129 -15 102.0 -5.0Q75 5 57.5 23.5Q40 42 32.0 65.5Q24 89 24 113Q24 146 34.5 170.0Q45 194 64.5 211.0Q84 228 111.0 239.5Q138 251 172 259Q214 269 238.5 276.5Q263 284 275.0 291.5Q287 299 290.5 308.0Q294 317 294 330Q294 366 268.5 391.5Q243 417 198 417Q181 417 163.0 412.5Q145 408 128.5 400.0Q112 392 98.5 382.5Q85 373 78 362H71Z"/>
  <path fill="#171717" stroke="#171717" stroke-width="13.5" transform="translate(176.3900, 24) scale(0.026000, -0.026000)" d="M316 474Q313 459 313 447Q313 434 316 422L228 424Q226 401 224.5 371.0Q223 341 222.5 310.0Q222 279 221.5 250.0Q221 221 221 201Q221 149 223.5 117.0Q226 85 232.0 68.0Q238 51 249.0 45.0Q260 39 277 39Q296 39 305.0 41.5Q314 44 323 49V8Q303 -1 273.0 -8.0Q243 -15 214 -15Q87 -15 87 137Q87 166 88.0 202.5Q89 239 90.5 277.5Q92 316 93.0 353.5Q94 391 94 423L24 422Q27 434 27 447Q27 459 24 474L94 471Q94 502 93.0 529.0Q92 556 90 594Q125 608 159.0 623.5Q193 639 227 656L237 649Q235 633 233.5 611.5Q232 590 230.5 566.5Q229 543 228.5 518.5Q228 494 228 472L316 474Z"/>
  <path fill="#171717" stroke="#171717" stroke-width="13.5" transform="translate(184.5500, 24) scale(0.026000, -0.026000)" d="M60 668Q60 701 83.0 724.0Q106 747 139 747Q172 747 195.0 724.0Q218 701 218 668Q218 635 195.0 612.0Q172 589 139 589Q106 589 83.0 612.0Q60 635 60 668ZM72 257Q72 318 70.5 371.5Q69 425 64 479Q78 477 97.0 475.5Q116 474 139 474Q186 474 214 479Q209 425 207.5 371.5Q206 318 206 257V217Q206 156 207.5 102.0Q209 48 214 -2Q201 0 181.5 0.0Q162 0 139 0Q116 0 97.0 0.0Q78 0 64 -2Q69 48 70.5 102.0Q72 156 72 217Z"/>
  <path fill="#171717" stroke="#171717" stroke-width="13.5" transform="translate(191.2800, 24) scale(0.026000, -0.026000)" d="M375 262Q375 350 353.0 398.5Q331 447 280 447Q234 447 207.5 393.0Q181 339 181 224Q181 182 186.0 146.0Q191 110 202.5 83.5Q214 57 232.5 42.0Q251 27 279 27Q375 27 375 262ZM33 225Q33 292 53.5 342.0Q74 392 108.0 425.5Q142 459 186.5 475.5Q231 492 278 492Q395 492 459.0 426.0Q523 360 523 247Q523 186 505.0 137.0Q487 88 454.5 53.5Q422 19 377.0 2.0Q332 -15 278 -15Q233 -15 189.5 -3.0Q146 9 111.0 37.5Q76 66 54.5 112.0Q33 158 33 225Z"/>
  <path fill="#171717" stroke="#171717" stroke-width="13.5" transform="translate(205.2300, 24) scale(0.026000, -0.026000)" d="M195 404Q223 446 260.5 469.0Q298 492 346 492Q421 492 461.5 448.5Q502 405 502 308Q502 257 500.0 218.0Q498 179 498 140Q498 108 499.5 70.5Q501 33 503 -2Q490 0 470.0 0.0Q450 0 428 0Q406 0 386.0 0.0Q366 0 353 -2Q360 50 362.0 120.5Q364 191 364 282Q364 345 342.5 374.5Q321 404 282 404Q237 404 216.0 365.0Q195 326 195 257V217Q195 156 196.5 102.0Q198 48 203 -2Q190 0 170.5 0.0Q151 0 128 0Q105 0 86.0 0.0Q67 0 53 -2Q58 48 59.5 102.0Q61 156 61 217V257Q61 318 59.5 371.5Q58 425 53 479Q71 477 88.5 475.5Q106 474 124 474Q142 474 159.5 475.5Q177 477 197 479L193 404Z"/>
  <path fill="#171717" stroke="#171717" stroke-width="13.5" transform="translate(219.2000, 24) scale(0.026000, -0.026000)" d=""/>
  <path fill="#171717" stroke="#171717" stroke-width="13.5" transform="translate(225.9200, 24) scale(0.026000, -0.026000)" d="M384 550Q352 636 263 636Q217 636 188.0 609.0Q159 582 159 546Q159 509 181.5 485.5Q204 462 238.0 443.0Q272 424 311.0 406.5Q350 389 384.0 363.5Q418 338 440.5 301.5Q463 265 463 208Q463 158 444.0 116.5Q425 75 390.0 45.5Q355 16 306.5 0.5Q258 -15 198 -15Q144 -15 101.5 -3.5Q59 8 37 25Q47 60 54.0 89.0Q61 118 66 152H85Q89 130 100.0 110.5Q111 91 128.0 76.0Q145 61 169.0 52.5Q193 44 223 44Q283 44 311.5 74.0Q340 104 340 146Q340 184 318.0 208.0Q296 232 263.0 250.5Q230 269 191.0 286.5Q152 304 119.0 329.0Q86 354 64.0 390.5Q42 427 42 484Q42 536 60.5 576.0Q79 616 110.0 643.0Q141 670 181.5 684.0Q222 698 267 698Q321 698 361.5 685.0Q402 672 431 649Q422 626 415.5 604.5Q409 583 399 550H384Z"/>
  <path fill="#171717" stroke="#171717" stroke-width="13.5" transform="translate(238.4200, 24) scale(0.026000, -0.026000)" d="M361 70Q333 28 295.5 6.5Q258 -15 210 -15Q135 -15 94.5 27.0Q54 69 54 166Q54 217 56.0 256.0Q58 295 58 334Q58 366 56.5 403.5Q55 441 53 479Q66 477 86.0 475.5Q106 474 128 474Q150 474 170.0 475.5Q190 477 203 479Q196 425 194.0 354.0Q192 283 192 192Q192 129 213.5 99.5Q235 70 274 70Q319 70 340.0 109.0Q361 148 361 217V257Q361 318 359.5 371.5Q358 425 353 479Q381 474 428 474Q451 474 470.0 475.5Q489 477 503 479Q498 425 496.5 371.5Q495 318 495 257V217Q495 156 496.5 102.0Q498 48 503 -2Q485 0 467.5 0.0Q450 0 432 0Q414 0 396.5 0.0Q379 0 359 -2L363 70Z"/>
  <path fill="#171717" stroke="#171717" stroke-width="13.5" transform="translate(252.3800, 24) scale(0.026000, -0.026000)" d="M60 668Q60 701 83.0 724.0Q106 747 139 747Q172 747 195.0 724.0Q218 701 218 668Q218 635 195.0 612.0Q172 589 139 589Q106 589 83.0 612.0Q60 635 60 668ZM72 257Q72 318 70.5 371.5Q69 425 64 479Q78 477 97.0 475.5Q116 474 139 474Q186 474 214 479Q209 425 207.5 371.5Q206 318 206 257V217Q206 156 207.5 102.0Q209 48 214 -2Q201 0 181.5 0.0Q162 0 139 0Q116 0 97.0 0.0Q78 0 64 -2Q69 48 70.5 102.0Q72 156 72 217Z"/>
  <path fill="#171717" stroke="#171717" stroke-width="13.5" transform="translate(259.1000, 24) scale(0.026000, -0.026000)" d="M316 474Q313 459 313 447Q313 434 316 422L228 424Q226 401 224.5 371.0Q223 341 222.5 310.0Q222 279 221.5 250.0Q221 221 221 201Q221 149 223.5 117.0Q226 85 232.0 68.0Q238 51 249.0 45.0Q260 39 277 39Q296 39 305.0 41.5Q314 44 323 49V8Q303 -1 273.0 -8.0Q243 -15 214 -15Q87 -15 87 137Q87 166 88.0 202.5Q89 239 90.5 277.5Q92 316 93.0 353.5Q94 391 94 423L24 422Q27 434 27 447Q27 459 24 474L94 471Q94 502 93.0 529.0Q92 556 90 594Q125 608 159.0 623.5Q193 639 227 656L237 649Q235 633 233.5 611.5Q232 590 230.5 566.5Q229 543 228.5 518.5Q228 494 228 472L316 474Z"/>
  <path fill="#171717" stroke="#171717" stroke-width="13.5" transform="translate(267.2600, 24) scale(0.026000, -0.026000)" d="M181 237Q181 197 189.0 162.0Q197 127 213.5 101.5Q230 76 255.5 61.5Q281 47 315 47Q384 47 438 92L450 83L428 27Q403 8 368.0 -3.5Q333 -15 276 -15Q227 -15 183.0 -1.5Q139 12 105.5 43.0Q72 74 52.5 121.5Q33 169 33 235Q33 300 50.5 348.0Q68 396 99.0 428.0Q130 460 172.5 476.0Q215 492 265 492Q364 492 416.5 434.0Q469 376 469 270V249Q469 240 468 237ZM335 282Q333 357 316.5 402.0Q300 447 261 447Q239 447 224.0 432.0Q209 417 200.0 393.5Q191 370 186.5 340.5Q182 311 181 282Z"/>
</g>
</svg>