<svg xmlns="http://www.w3.org/2000/svg" viewBox="0 0 212 32">
  <g shape-rendering="geometricPrecision">
  <path fill="#b88b4a" stroke="#b88b4a" stroke-width="13.5" transform="translate(0.0000, 24) scale(0.026000, -0.026000)" d="M80 408Q80 491 78.0 555.5Q76 620 72 685Q117 684 161.0 682.0Q205 680 250 680Q324 680 381.5 681.5Q439 683 459 685Q455 669 455 643Q455 627 456.0 618.0Q457 609 459 598Q430 600 395.5 602.0Q361 604 328.5 606.0Q296 608 270.0 609.0Q244 610 233 610Q229 555 228.5 501.0Q228 447 228 392Q293 393 345.5 395.0Q398 397 455 400Q452 383 451.0 374.0Q450 365 450 355Q450 347 451.5 338.5Q453 330 455 314Q341 323 228 323V272Q228 189 230.0 124.5Q232 60 236 -2Q219 0 199.0 0.0Q179 0 154 0Q129 0 109.0 0.0Q89 0 72 -2Q76 60 78.0 124.5Q80 189 80 272V408Z"/>
  <path fill="#b88b4a" stroke="#b88b4a" stroke-width="13.5" transform="translate(12.2700, 24) scale(0.026000, -0.026000)" d="M60 668Q60 701 83.0 724.0Q106 747 139 747Q172 747 195.0 724.0Q218 701 218 668Q218 635 195.0 612.0Q172 589 139 589Q106 589 83.0 612.0Q60 635 60 668ZM72 257Q72 318 70.5 371.5Q69 425 64 479Q78 477 97.0 475.5Q116 474 139 474Q186 474 214 479Q209 425 207.5 371.5Q206 318 206 257V217Q206 156 207.5 102.0Q209 48 214 -2Q201 0 181.5 0.0Q162 0 139 0Q116 0 97.0 0.0Q78 0 64 -2Q69 48 70.5 102.0Q72 156 72 217Z"/>
  <path fill="#b88b4a" stroke="#b88b4a" stroke-width="13.5" transform="translate(18.7600, 24) scale(0.026000, -0.026000)" d="M72 406Q72 504 70.0 586.0Q68 668 64 752Q77 750 97.0 748.5Q117 747 139 747Q161 747 181.0 748.5Q201 750 214 752Q210 668 208.0 586.0Q206 504 206 406V341Q206 243 208.0 161.0Q210 79 214 -2Q201 0 181.0 0.0Q161 0 139 0Q117 0 97.0 0.0Q77 0 64 -2Q68 79 70.0 161.0Q72 243 72 341V406Z"/>
  <path fill="#b88b4a" stroke="#b88b4a" stroke-width="13.5" transform="translate(25.4800, 24) scale(0.026000, -0.026000)" d="M295 150Q295 193 295.5 215.5Q296 238 296 255Q275 243 251.5 235.5Q228 228 208.5 216.5Q189 205 176.5 185.0Q164 165 164 127Q164 90 179.5 70.5Q195 51 221 51Q254 51 274.5 76.0Q295 101 295 150ZM58 422Q100 456 148.5 474.0Q197 492 245 492Q285 492 318.5 483.0Q352 474 376.5 454.5Q401 435 414.5 404.0Q428 373 428 329Q428 265 426.5 210.5Q425 156 425 102Q425 78 428.5 64.5Q432 51 439.0 44.0Q446 37 457.5 35.0Q469 33 484 33V9Q455 -3 435.0 -9.0Q415 -15 392 -15Q355 -15 332.0 3.0Q309 21 297 55Q274 23 243.5 4.0Q213 -15 167 -15Q129 -15 102.0 -5.0Q75 5 57.5 23.5Q40 42 32.0 65.5Q24 89 24 113Q24 146 34.5 170.0Q45 194 64.5 211.0Q84 228 111.0 239.5Q138 251 172 259Q214 269 238.5 276.5Q263 284 275.0 291.5Q287 299 290.5 308.0Q294 317 294 330Q294 366 268.5 391.5Q243 417 198 417Q181 417 163.0 412.5Q145 408 128.5 400.0Q112 392 98.5 382.5Q85 373 78 362H71Z"/>
  <path fill="#b88b4a" stroke="#b88b4a" stroke-width="13.5" transform="translate(37.9800, 24) scale(0.026000, -0.026000)" d="M192 404Q220 446 257.5 469.0Q295 492 343 492Q388 492 420.5 467.5Q453 443 471 397Q501 443 541.0 467.5Q581 492 626 492Q701 492 741.5 448.5Q782 405 782 308Q782 257 780.0 218.0Q778 179 778 140Q778 108 779.5 70.5Q781 33 783 -2Q770 0 750.0 0.0Q730 0 708 0Q686 0 666.0 0.0Q646 0 633 -2Q640 50 642.0 120.5Q644 191 644 282Q644 345 623.0 374.5Q602 404 564 404Q540 404 524.5 393.0Q509 382 500.0 364.5Q491 347 488.0 327.0Q485 307 485 289V217Q485 156 486.5 102.0Q488 48 493 -2Q480 0 460.5 0.0Q441 0 418 0Q395 0 376.0 0.0Q357 0 343 -2Q348 48 349.5 102.0Q351 156 351 217V278Q351 338 336.0 371.0Q321 404 279 404Q234 404 213.0 365.0Q192 326 192 257V217Q192 156 193.5 102.0Q195 48 200 -2Q187 0 167.5 0.0Q148 0 125 0Q102 0 83.0 0.0Q64 0 50 -2Q55 48 56.5 102.0Q58 156 58 217V257Q58 318 56.5 371.5Q55 425 50 479Q68 477 85.5 475.5Q103 474 121 474Q139 474 156.5 475.5Q174 477 194 479L190 404Z"/>
  <path fill="#b88b4a" stroke="#b88b4a" stroke-width="13.5" transform="translate(59.1400, 24) scale(0.026000, -0.026000)" d="M181 237Q181 197 189.0 162.0Q197 127 213.5 101.5Q230 76 255.5 61.5Q281 47 315 47Q384 47 438 92L450 83L428 27Q403 8 368.0 -3.5Q333 -15 276 -15Q227 -15 183.0 -1.5Q139 12 105.5 43.0Q72 74 52.5 121.5Q33 169 33 235Q33 300 50.5 348.0Q68 396 99.0 428.0Q130 460 172.5 476.0Q215 492 265 492Q364 492 416.5 434.0Q469 376 469 270V249Q469 240 468 237ZM335 282Q333 357 316.5 402.0Q300 447 261 447Q239 447 224.0 432.0Q209 417 200.0 393.5Q191 370 186.5 340.5Q182 311 181 282Z"/>
  <path fill="#b88b4a" stroke="#b88b4a" stroke-width="13.5" transform="translate(71.6400, 24) scale(0.026000, -0.026000)" d="M195 404Q223 446 260.5 469.0Q298 492 346 492Q421 492 461.5 448.5Q502 405 502 308Q502 257 500.0 218.0Q498 179 498 140Q498 108 499.5 70.5Q501 33 503 -2Q490 0 470.0 0.0Q450 0 428 0Q406 0 386.0 0.0Q366 0 353 -2Q360 50 362.0 120.5Q364 191 364 282Q364 345 342.5 374.5Q321 404 282 404Q237 404 216.0 365.0Q195 326 195 257V217Q195 156 196.5 102.0Q198 48 203 -2Q190 0 170.5 0.0Q151 0 128 0Q105 0 86.0 0.0Q67 0 53 -2Q58 48 59.5 102.0Q61 156 61 217V257Q61 318 59.5 371.5Q58 425 53 479Q71 477 88.5 475.5Q106 474 124 474Q142 474 159.5 475.5Q177 477 197 479L193 404Z"/>
  <path fill="#b88b4a" stroke="#b88b4a" stroke-width="13.5" transform="translate(85.6000, 24) scale(0.026000, -0.026000)" d="M316 474Q313 459 313 447Q313 434 316 422L228 424Q226 401 224.5 371.0Q223 341 222.5 310.0Q222 279 221.5 250.0Q221 221 221 201Q221 149 223.5 117.0Q226 85 232.0 68.0Q238 51 249.0 45.0Q260 39 277 39Q296 39 305.0 41.5Q314 44 323 49V8Q303 -1 273.0 -8.0Q243 -15 214 -15Q87 -15 87 137Q87 166 88.0 202.5Q89 239 90.5 277.5Q92 316 93.0 353.5Q94 391 94 423L24 422Q27 434 27 447Q27 459 24 474L94 471Q94 502 93.0 529.0Q92 556 90 594Q125 608 159.0 623.5Q193 639 227 656L237 649Q235 633 233.5 611.5Q232 590 230.5 566.5Q229 543 228.5 518.5Q228 494 228 472L316 474Z"/>
  <path fill="#171717" stroke="#171717" stroke-width="13.5" transform="translate(99.7700, 24) scale(0.026000, -0.026000)" d="M80 408Q80 491 78.0 555.5Q76 620 72 685Q117 684 161.0 682.0Q205 680 250 680Q324 680 381.5 681.5Q439 683 459 685Q455 669 455 643Q455 627 456.0 618.0Q457 609 459 598Q430 600 395.5 602.0Q361 604 328.5 606.0Q296 608 270.0 609.0Q244 610 233 610Q229 555 228.5 501.0Q228 447 228 392Q293 393 345.5 395.0Q398 397 455 400Q452 383 451.0 374.0Q450 365 450 355Q450 347 451.5 338.5Q453 330 455 314Q341 323 228 323Q228 291 227.5 259.0Q227 227 227 195Q227 130 230 70Q287 70 344.0 73.0Q401 76 459 83Q457 72 456.0 63.0Q455 54 455 38Q455 22 456.0 13.0Q457 4 459 -2Q432 -1 392.5 -0.5Q353 0 284 0Q223 0 185 0Q148 0 125.5 0.0Q103 0 91.5 -0.5Q80 -1 72 -2Q76 60 78.0 124.5Q80 189 80 272V408Z"/>
  <path fill="#171717" stroke="#171717" stroke-width="13.5" transform="translate(112.2700, 24) scale(0.026000, -0.026000)" d="M181 227Q181 176 188.0 141.0Q195 106 207.0 84.5Q219 63 234.5 53.5Q250 44 267 44Q308 44 334.5 90.5Q361 137 361 245Q361 338 336.0 380.5Q311 423 272 423Q256 423 240.0 414.0Q224 405 211.0 382.5Q198 360 189.5 322.0Q181 284 181 227ZM495 341Q495 243 497.0 161.0Q499 79 503 -2Q490 0 470.0 0.0Q450 0 428 0Q408 0 389.5 0.0Q371 0 361 -2Q362 0 363.0 11.0Q364 22 365.5 36.0Q367 50 368.0 62.0Q369 74 369 77L367 79Q348 34 315.0 9.5Q282 -15 224 -15Q173 -15 137.0 4.5Q101 24 78.0 59.0Q55 94 44.0 141.0Q33 188 33 242Q33 296 48.0 341.5Q63 387 89.0 420.5Q115 454 150.5 473.0Q186 492 226 492Q271 492 306.5 471.0Q342 450 359 418H361Q361 508 359.0 587.5Q357 667 353 752Q366 750 386.0 748.5Q406 747 428 747Q450 747 470.0 748.5Q490 750 503 752Q499 668 497.0 586.0Q495 504 495 406Z"/>
  <path fill="#171717" stroke="#171717" stroke-width="13.5" transform="translate(126.2200, 24) scale(0.026000, -0.026000)" d="M60 668Q60 701 83.0 724.0Q106 747 139 747Q172 747 195.0 724.0Q218 701 218 668Q218 635 195.0 612.0Q172 589 139 589Q106 589 83.0 612.0Q60 635 60 668ZM72 257Q72 318 70.5 371.5Q69 425 64 479Q78 477 97.0 475.5Q116 474 139 474Q186 474 214 479Q209 425 207.5 371.5Q206 318 206 257V217Q206 156 207.5 102.0Q209 48 214 -2Q201 0 181.5 0.0Q162 0 139 0Q116 0 97.0 0.0Q78 0 64 -2Q69 48 70.5 102.0Q72 156 72 217Z"/>
  <path fill="#171717" stroke="#171717" stroke-width="13.5" transform="translate(132.9500, 24) scale(0.026000, -0.026000)" d="M316 474Q313 459 313 447Q313 434 316 422L228 424Q226 401 224.5 371.0Q223 341 222.5 310.0Q222 279 221.5 250.0Q221 221 221 201Q221 149 223.5 117.0Q226 85 232.0 68.0Q238 51 249.0 45.0Q260 39 277 39Q296 39 305.0 41.5Q314 44 323 49V8Q303 -1 273.0 -8.0Q243 -15 214 -15Q87 -15 87 137Q87 166 88.0 202.5Q89 239 90.5 277.5Q92 316 93.0 353.5Q94 391 94 423L24 422Q27 434 27 447Q27 459 24 474L94 471Q94 502 93.0 529.0Q92 556 90 594Q125 608 159.0 623.5Q193 639 227 656L237 649Q235 633 233.5 611.5Q232 590 230.5 566.5Q229 543 228.5 518.5Q228 494 228 472L316 474Z"/>
  <path fill="#171717" stroke="#171717" stroke-width="13.5" transform="translate(141.1000, 24) scale(0.026000, -0.026000)" d=""/>
  <path fill="#171717" stroke="#171717" stroke-width="13.5" transform="translate(147.8300, 24) scale(0.026000, -0.026000)" d="M93 408Q93 491 91.0 555.5Q89 620 85 685Q102 683 122.0 681.5Q142 680 167 680Q192 680 212.0 681.5Q232 683 249 685Q245 620 243.0 555.5Q241 491 241 408V272Q241 189 243.0 124.5Q245 60 249 -2Q232 0 212.0 0.0Q192 0 167 0Q142 0 122.0 0.0Q102 0 85 -2Q89 60 91.0 124.5Q93 189 93 272V408Z"/>
  <path fill="#171717" stroke="#171717" stroke-width="13.5" transform="translate(155.9900, 24) scale(0.026000, -0.026000)" d="M195 404Q223 446 260.5 469.0Q298 492 346 492Q421 492 461.5 448.5Q502 405 502 308Q502 257 500.0 218.0Q498 179 498 140Q498 108 499.5 70.5Q501 33 503 -2Q490 0 470.0 0.0Q450 0 428 0Q406 0 386.0 0.0Q366 0 353 -2Q360 50 362.0 120.5Q364 191 364 282Q364 345 342.5 374.5Q321 404 282 404Q237 404 216.0 365.0Q195 326 195 257V217Q195 156 196.5 102.0Q198 48 203 -2Q190 0 170.5 0.0Q151 0 128 0Q105 0 86.0 0.0Q67 0 53 -2Q58 48 59.5 102.0Q61 156 61 217V257Q61 318 59.5 371.5Q58 425 53 479Q71 477 88.5 475.5Q106 474 124 474Q142 474 159.5 475.5Q177 477 197 479L193 404Z"/>
  <path fill="#171717" stroke="#171717" stroke-width="13.5" transform="translate(169.9500, 24) scale(0.026000, -0.026000)" d="M72 406Q72 504 70.0 586.0Q68 668 64 752Q77 750 97.0 748.5Q117 747 139 747Q161 747 181.0 748.5Q201 750 214 752Q210 668 208.0 586.0Q206 504 206 406V341Q206 243 208.0 161.0Q210 79 214 -2Q201 0 181.0 0.0Q161 0 139 0Q117 0 97.0 0.0Q77 0 64 -2Q68 79 70.0 161.0Q72 243 72 341V406Z"/>
  <path fill="#171717" stroke="#171717" stroke-width="13.5" transform="translate(176.6700, 24) scale(0.026000, -0.026000)" d="M60 668Q60 701 83.0 724.0Q106 747 139 747Q172 747 195.0 724.0Q218 701 218 668Q218 635 195.0 612.0Q172 589 139 589Q106 589 83.0 612.0Q60 635 60 668ZM72 257Q72 318 70.5 371.5Q69 425 64 479Q78 477 97.0 475.5Q116 474 139 474Q186 474 214 479Q209 425 207.5 371.5Q206 318 206 257V217Q206 156 207.5 102.0Q209 48 214 -2Q201 0 181.5 0.0Q162 0 139 0Q116 0 97.0 0.0Q78 0 64 -2Q69 48 70.5 102.0Q72 156 72 217Z"/>
  <path fill="#171717" stroke="#171717" stroke-width="13.5" transform="translate(183.4000, 24) scale(0.026000, -0.026000)" d="M195 404Q223 446 260.5 469.0Q298 492 346 492Q421 492 461.5 448.5Q502 405 502 308Q502 257 500.0 218.0Q498 179 498 140Q498 108 499.5 70.5Q501 33 503 -2Q490 0 470.0 0.0Q450 0 428 0Q406 0 386.0 0.0Q366 0 353 -2Q360 50 362.0 120.5Q364 191 364 282Q364 345 342.5 374.5Q321 404 282 404Q237 404 216.0 365.0Q195 326 195 257V217Q195 156 196.5 102.0Q198 48 203 -2Q190 0 170.5 0.0Q151 0 128 0Q105 0 86.0 0.0Q67 0 53 -2Q58 48 59.5 102.0Q61 156 61 217V257Q61 318 59.5 371.5Q58 425 53 479Q71 477 88.5 475.5Q106 474 124 474Q142 474 159.5 475.5Q177 477 197 479L193 404Z"/>
  <path fill="#171717" stroke="#171717" stroke-width="13.5" transform="translate(197.3600, 24) scale(0.026000, -0.026000)" d="M181 237Q181 197 189.0 162.0Q197 127 213.5 101.5Q230 76 255.5 61.5Q281 47 315 47Q384 47 438 92L450 83L428 27Q403 8 368.0 -3.5Q333 -15 276 -15Q227 -15 183.0 -1.5Q139 12 105.5 43.0Q72 74 52.5 121.5Q33 169 33 235Q33 300 50.5 348.0Q68 396 99.0 428.0Q130 460 172.5 476.0Q215 492 265 492Q364 492 416.5 434.0Q469 376 469 270V249Q469 240 468 237ZM335 282Q333 357 316.5 402.0Q300 447 261 447Q239 447 224.0 432.0Q209 417 200.0 393.5Q191 370 186.5 340.5Q182 311 181 282Z"/>
</g>
</svg>