<svg xmlns="http://www.w3.org/2000/svg" viewBox="0 0 310 32">
  <defs>
    <style>
      .t { font-family: Optima, Palatino, 'Book Antiqua', Georgia, serif; font-size: 26px; font-weight: 600; letter-spacing: -0.5px; }
      .g { fill: #b88b4a; }
      .d { fill: #171717; }
    </style>
  </defs>
  <g shape-rendering="geometricPrecision">
  <path fill="#b88b4a" stroke="#b88b4a" stroke-width="6" transform="translate(0.0000, 24) scale(0.026000, -0.026000)" d="M80 408Q80 491 78.0 555.5Q76 620 72 685Q117 684 161.0 682.0Q205 680 250 680Q324 680 381.5 681.5Q439 683 459 685Q455 669 455 643Q455 627 456.0 618.0Q457 609 459 598Q430 600 395.5 602.0Q361 604 328.5 606.0Q296 608 270.0 609.0Q244 610 233 610Q229 555 228.5 501.0Q228 447 228 392Q293 393 345.5 395.0Q398 397 455 400Q452 383 451.0 374.0Q450 365 450 355Q450 347 451.5 338.5Q453 330 455 314Q341 323 228 323V272Q228 189 230.0 124.5Q232 60 236 -2Q219 0 199.0 0.0Q179 0 154 0Q129 0 109.0 0.0Q89 0 72 -2Q76 60 78.0 124.5Q80 189 80 272V408Z"/>
  <path fill="#b88b4a" stroke="#b88b4a" stroke-width="6" transform="translate(12.2700, 24) scale(0.026000, -0.026000)" d="M60 668Q60 701 83.0 724.0Q106 747 139 747Q172 747 195.0 724.0Q218 701 218 668Q218 635 195.0 612.0Q172 589 139 589Q106 589 83.0 612.0Q60 635 60 668ZM72 257Q72 318 70.5 371.5Q69 425 64 479Q78 477 97.0 475.5Q116 474 139 474Q186 474 214 479Q209 425 207.5 371.5Q206 318 206 257V217Q206 156 207.5 102.0Q209 48 214 -2Q201 0 181.5 0.0Q162 0 139 0Q116 0 97.0 0.0Q78 0 64 -2Q69 48 70.5 102.0Q72 156 72 217Z"/>
  <path fill="#b88b4a" stroke="#b88b4a" stroke-width="6" transform="translate(18.7600, 24) scale(0.026000, -0.026000)" d="M72 406Q72 504 70.0 586.0Q68 668 64 752Q77 750 97.0 748.5Q117 747 139 747Q161 747 181.0 748.5Q201 750 214 752Q210 668 208.0 586.0Q206 504 206 406V341Q206 243 208.0 161.0Q210 79 214 -2Q201 0 181.0 0.0Q161 0 139 0Q117 0 97.0 0.0Q77 0 64 -2Q68 79 70.0 161.0Q72 243 72 341V406Z"/>
  <path fill="#b88b4a" stroke="#b88b4a" stroke-width="6" transform="translate(25.4800, 24) scale(0.026000, -0.026000)" d="M295 150Q295 193 295.5 215.5Q296 238 296 255Q275 243 251.5 235.5Q228 228 208.5 216.5Q189 205 176.5 185.0Q164 165 164 127Q164 90 179.5 70.5Q195 51 221 51Q254 51 274.5 76.0Q295 101 295 150ZM58 422Q100 456 148.5 474.0Q197 492 245 492Q285 492 318.5 483.0Q352 474 376.5 454.5Q401 435 414.5 404.0Q428 373 428 329Q428 265 426.5 210.5Q425 156 425 102Q425 78 428.5 64.5Q432 51 439.0 44.0Q446 37 457.5 35.0Q469 33 484 33V9Q455 -3 435.0 -9.0Q415 -15 392 -15Q355 -15 332.0 3.0Q309 21 297 55Q274 23 243.5 4.0Q213 -15 167 -15Q129 -15 102.0 -5.0Q75 5 57.5 23.5Q40 42 32.0 65.5Q24 89 24 113Q24 146 34.5 170.0Q45 194 64.5 211.0Q84 228 111.0 239.5Q138 251 172 259Q214 269 238.5 276.5Q263 284 275.0 291.5Q287 299 290.5 308.0Q294 317 294 330Q294 366 268.5 391.5Q243 417 198 417Q181 417 163.0 412.5Q145 408 128.5 400.0Q112 392 98.5 382.5Q85 373 78 362H71Z"/>
  <path fill="#b88b4a" stroke="#b88b4a" stroke-width="6" transform="translate(37.9800, 24) scale(0.026000, -0.026000)" d="M192 404Q220 446 257.5 469.0Q295 492 343 492Q388 492 420.5 467.5Q453 443 471 397Q501 443 541.0 467.5Q581 492 626 492Q701 492 741.5 448.5Q782 405 782 308Q782 257 780.0 218.0Q778 179 778 140Q778 108 779.5 70.5Q781 33 783 -2Q770 0 750.0 0.0Q730 0 708 0Q686 0 666.0 0.0Q646 0 633 -2Q640 50 642.0 120.5Q644 191 644 282Q644 345 623.0 374.5Q602 404 564 404Q540 404 524.5 393.0Q509 382 500.0 364.5Q491 347 488.0 327.0Q485 307 485 289V217Q485 156 486.5 102.0Q488 48 493 -2Q480 0 460.5 0.0Q441 0 418 0Q395 0 376.0 0.0Q357 0 343 -2Q348 48 349.5 102.0Q351 156 351 217V278Q351 338 336.0 371.0Q321 404 279 404Q234 404 213.0 365.0Q192 326 192 257V217Q192 156 193.5 102.0Q195 48 200 -2Q187 0 167.5 0.0Q148 0 125 0Q102 0 83.0 0.0Q64 0 50 -2Q55 48 56.5 102.0Q58 156 58 217V257Q58 318 56.5 371.5Q55 425 50 479Q68 477 85.5 475.5Q103 474 121 474Q139 474 156.5 475.5Q174 477 194 479L190 404Z"/>
  <path fill="#b88b4a" stroke="#b88b4a" stroke-width="6" transform="translate(59.1400, 24) scale(0.026000, -0.026000)" d="M181 237Q181 197 189.0 162.0Q197 127 213.5 101.5Q230 76 255.5 61.5Q281 47 315 47Q384 47 438 92L450 83L428 27Q403 8 368.0 -3.5Q333 -15 276 -15Q227 -15 183.0 -1.5Q139 12 105.5 43.0Q72 74 52.5 121.5Q33 169 33 235Q33 300 50.5 348.0Q68 396 99.0 428.0Q130 460 172.5 476.0Q215 492 265 492Q364 492 416.5 434.0Q469 376 469 270V249Q469 240 468 237ZM335 282Q333 357 316.5 402.0Q300 447 261 447Q239 447 224.0 432.0Q209 417 200.0 393.5Q191 370 186.5 340.5Q182 311 181 282Z"/>
  <path fill="#b88b4a" stroke="#b88b4a" stroke-width="6" transform="translate(71.6400, 24) scale(0.026000, -0.026000)" d="M195 404Q223 446 260.5 469.0Q298 492 346 492Q421 492 461.5 448.5Q502 405 502 308Q502 257 500.0 218.0Q498 179 498 140Q498 108 499.5 70.5Q501 33 503 -2Q490 0 470.0 0.0Q450 0 428 0Q406 0 386.0 0.0Q366 0 353 -2Q360 50 362.0 120.5Q364 191 364 282Q364 345 342.5 374.5Q321 404 282 404Q237 404 216.0 365.0Q195 326 195 257V217Q195 156 196.5 102.0Q198 48 203 -2Q190 0 170.5 0.0Q151 0 128 0Q105 0 86.0 0.0Q67 0 53 -2Q58 48 59.5 102.0Q61 156 61 217V257Q61 318 59.5 371.5Q58 425 53 479Q71 477 88.5 475.5Q106 474 124 474Q142 474 159.5 475.5Q177 477 197 479L193 404Z"/>
  <path fill="#b88b4a" stroke="#b88b4a" stroke-width="6" transform="translate(85.6000, 24) scale(0.026000, -0.026000)" d="M316 474Q313 459 313 447Q313 434 316 422L228 424Q226 401 224.5 371.0Q223 341 222.5 310.0Q222 279 221.5 250.0Q221 221 221 201Q221 149 223.5 117.0Q226 85 232.0 68.0Q238 51 249.0 45.0Q260 39 277 39Q296 39 305.0 41.5Q314 44 323 49V8Q303 -1 273.0 -8.0Q243 -15 214 -15Q87 -15 87 137Q87 166 88.0 202.5Q89 239 90.5 277.5Q92 316 93.0 353.5Q94 391 94 423L24 422Q27 434 27 447Q27 459 24 474L94 471Q94 502 93.0 529.0Q92 556 90 594Q125 608 159.0 623.5Q193 639 227 656L237 649Q235 633 233.5 611.5Q232 590 230.5 566.5Q229 543 228.5 518.5Q228 494 228 472L316 474Z"/>
  <path fill="#171717" stroke="#171717" stroke-width="6" transform="translate(99.7700, 24) scale(0.026000, -0.026000)" d="M299 497Q273 437 250.0 378.5Q227 320 205 259H388Q366 320 344.5 378.5Q323 437 299 497ZM653 -2Q629 0 607.5 0.0Q586 0 565 0Q544 0 522.5 0.0Q501 0 480 -2Q464 47 447.0 98.0Q430 149 411 200Q379 201 347.0 201.5Q315 202 283 202Q257 202 231.0 201.5Q205 201 179 200Q159 149 142.0 98.0Q125 47 111 -2Q99 0 87.5 0.0Q76 0 64 0Q52 0 40.0 0.0Q28 0 14 -2Q26 24 46.0 70.0Q66 116 90.0 174.0Q114 232 141.5 298.5Q169 365 196.5 433.0Q224 501 250.5 567.0Q277 633 299 690Q309 688 318.0 686.5Q327 685 337 685Q347 685 356.0 686.5Q365 688 375 690Q407 605 443.5 508.0Q480 411 517.0 317.5Q554 224 589.0 140.0Q624 56 653 -2Z"/>
  <path fill="#171717" stroke="#171717" stroke-width="6" transform="translate(116.3700, 24) scale(0.026000, -0.026000)" d="M361 70Q333 28 295.5 6.5Q258 -15 210 -15Q135 -15 94.5 27.0Q54 69 54 166Q54 217 56.0 256.0Q58 295 58 334Q58 366 56.5 403.5Q55 441 53 479Q66 477 86.0 475.5Q106 474 128 474Q150 474 170.0 475.5Q190 477 203 479Q196 425 194.0 354.0Q192 283 192 192Q192 129 213.5 99.5Q235 70 274 70Q319 70 340.0 109.0Q361 148 361 217V257Q361 318 359.5 371.5Q358 425 353 479Q381 474 428 474Q451 474 470.0 475.5Q489 477 503 479Q498 425 496.5 371.5Q495 318 495 257V217Q495 156 496.5 102.0Q498 48 503 -2Q485 0 467.5 0.0Q450 0 432 0Q414 0 396.5 0.0Q379 0 359 -2L363 70Z"/>
  <path fill="#171717" stroke="#171717" stroke-width="6" transform="translate(130.0900, 24) scale(0.026000, -0.026000)" d="M316 474Q313 459 313 447Q313 434 316 422L228 424Q226 401 224.5 371.0Q223 341 222.5 310.0Q222 279 221.5 250.0Q221 221 221 201Q221 149 223.5 117.0Q226 85 232.0 68.0Q238 51 249.0 45.0Q260 39 277 39Q296 39 305.0 41.5Q314 44 323 49V8Q303 -1 273.0 -8.0Q243 -15 214 -15Q87 -15 87 137Q87 166 88.0 202.5Q89 239 90.5 277.5Q92 316 93.0 353.5Q94 391 94 423L24 422Q27 434 27 447Q27 459 24 474L94 471Q94 502 93.0 529.0Q92 556 90 594Q125 608 159.0 623.5Q193 639 227 656L237 649Q235 633 233.5 611.5Q232 590 230.5 566.5Q229 543 228.5 518.5Q228 494 228 472L316 474Z"/>
  <path fill="#171717" stroke="#171717" stroke-width="6" transform="translate(138.2500, 24) scale(0.026000, -0.026000)" d="M375 262Q375 350 353.0 398.5Q331 447 280 447Q234 447 207.5 393.0Q181 339 181 224Q181 182 186.0 146.0Q191 110 202.5 83.5Q214 57 232.5 42.0Q251 27 279 27Q375 27 375 262ZM33 225Q33 292 53.5 342.0Q74 392 108.0 425.5Q142 459 186.5 475.5Q231 492 278 492Q395 492 459.0 426.0Q523 360 523 247Q523 186 505.0 137.0Q487 88 454.5 53.5Q422 19 377.0 2.0Q332 -15 278 -15Q233 -15 189.5 -3.0Q146 9 111.0 37.5Q76 66 54.5 112.0Q33 158 33 225Z"/>
  <path fill="#171717" stroke="#171717" stroke-width="6" transform="translate(152.2000, 24) scale(0.026000, -0.026000)" d="M192 404Q220 446 257.5 469.0Q295 492 343 492Q388 492 420.5 467.5Q453 443 471 397Q501 443 541.0 467.5Q581 492 626 492Q701 492 741.5 448.5Q782 405 782 308Q782 257 780.0 218.0Q778 179 778 140Q778 108 779.5 70.5Q781 33 783 -2Q770 0 750.0 0.0Q730 0 708 0Q686 0 666.0 0.0Q646 0 633 -2Q640 50 642.0 120.5Q644 191 644 282Q644 345 623.0 374.5Q602 404 564 404Q540 404 524.5 393.0Q509 382 500.0 364.5Q491 347 488.0 327.0Q485 307 485 289V217Q485 156 486.5 102.0Q488 48 493 -2Q480 0 460.5 0.0Q441 0 418 0Q395 0 376.0 0.0Q357 0 343 -2Q348 48 349.5 102.0Q351 156 351 217V278Q351 338 336.0 371.0Q321 404 279 404Q234 404 213.0 365.0Q192 326 192 257V217Q192 156 193.5 102.0Q195 48 200 -2Q187 0 167.5 0.0Q148 0 125 0Q102 0 83.0 0.0Q64 0 50 -2Q55 48 56.5 102.0Q58 156 58 217V257Q58 318 56.5 371.5Q55 425 50 479Q68 477 85.5 475.5Q103 474 121 474Q139 474 156.5 475.5Q174 477 194 479L190 404Z"/>
  <path fill="#171717" stroke="#171717" stroke-width="6" transform="translate(173.3700, 24) scale(0.026000, -0.026000)" d="M295 150Q295 193 295.5 215.5Q296 238 296 255Q275 243 251.5 235.5Q228 228 208.5 216.5Q189 205 176.5 185.0Q164 165 164 127Q164 90 179.5 70.5Q195 51 221 51Q254 51 274.5 76.0Q295 101 295 150ZM58 422Q100 456 148.5 474.0Q197 492 245 492Q285 492 318.5 483.0Q352 474 376.5 454.5Q401 435 414.5 404.0Q428 373 428 329Q428 265 426.5 210.5Q425 156 425 102Q425 78 428.5 64.5Q432 51 439.0 44.0Q446 37 457.5 35.0Q469 33 484 33V9Q455 -3 435.0 -9.0Q415 -15 392 -15Q355 -15 332.0 3.0Q309 21 297 55Q274 23 243.5 4.0Q213 -15 167 -15Q129 -15 102.0 -5.0Q75 5 57.5 23.5Q40 42 32.0 65.5Q24 89 24 113Q24 146 34.5 170.0Q45 194 64.5 211.0Q84 228 111.0 239.5Q138 251 172 259Q214 269 238.5 276.5Q263 284 275.0 291.5Q287 299 290.5 308.0Q294 317 294 330Q294 366 268.5 391.5Q243 417 198 417Q181 417 163.0 412.5Q145 408 128.5 400.0Q112 392 98.5 382.5Q85 373 78 362H71Z"/>
  <path fill="#171717" stroke="#171717" stroke-width="6" transform="translate(185.8700, 24) scale(0.026000, -0.026000)" d="M316 474Q313 459 313 447Q313 434 316 422L228 424Q226 401 224.5 371.0Q223 341 222.5 310.0Q222 279 221.5 250.0Q221 221 221 201Q221 149 223.5 117.0Q226 85 232.0 68.0Q238 51 249.0 45.0Q260 39 277 39Q296 39 305.0 41.5Q314 44 323 49V8Q303 -1 273.0 -8.0Q243 -15 214 -15Q87 -15 87 137Q87 166 88.0 202.5Q89 239 90.5 277.5Q92 316 93.0 353.5Q94 391 94 423L24 422Q27 434 27 447Q27 459 24 474L94 471Q94 502 93.0 529.0Q92 556 90 594Q125 608 159.0 623.5Q193 639 227 656L237 649Q235 633 233.5 611.5Q232 590 230.5 566.5Q229 543 228.5 518.5Q228 494 228 472L316 474Z"/>
  <path fill="#171717" stroke="#171717" stroke-width="6" transform="translate(194.0200, 24) scale(0.026000, -0.026000)" d="M60 668Q60 701 83.0 724.0Q106 747 139 747Q172 747 195.0 724.0Q218 701 218 668Q218 635 195.0 612.0Q172 589 139 589Q106 589 83.0 612.0Q60 635 60 668ZM72 257Q72 318 70.5 371.5Q69 425 64 479Q78 477 97.0 475.5Q116 474 139 474Q186 474 214 479Q209 425 207.5 371.5Q206 318 206 257V217Q206 156 207.5 102.0Q209 48 214 -2Q201 0 181.5 0.0Q162 0 139 0Q116 0 97.0 0.0Q78 0 64 -2Q69 48 70.5 102.0Q72 156 72 217Z"/>
  <path fill="#171717" stroke="#171717" stroke-width="6" transform="translate(200.7500, 24) scale(0.026000, -0.026000)" d="M375 262Q375 350 353.0 398.5Q331 447 280 447Q234 447 207.5 393.0Q181 339 181 224Q181 182 186.0 146.0Q191 110 202.5 83.5Q214 57 232.5 42.0Q251 27 279 27Q375 27 375 262ZM33 225Q33 292 53.5 342.0Q74 392 108.0 425.5Q142 459 186.5 475.5Q231 492 278 492Q395 492 459.0 426.0Q523 360 523 247Q523 186 505.0 137.0Q487 88 454.5 53.5Q422 19 377.0 2.0Q332 -15 278 -15Q233 -15 189.5 -3.0Q146 9 111.0 37.5Q76 66 54.5 112.0Q33 158 33 225Z"/>
  <path fill="#171717" stroke="#171717" stroke-width="6" transform="translate(214.7000, 24) scale(0.026000, -0.026000)" d="M195 404Q223 446 260.5 469.0Q298 492 346 492Q421 492 461.5 448.5Q502 405 502 308Q502 257 500.0 218.0Q498 179 498 140Q498 108 499.5 70.5Q501 33 503 -2Q490 0 470.0 0.0Q450 0 428 0Q406 0 386.0 0.0Q366 0 353 -2Q360 50 362.0 120.5Q364 191 364 282Q364 345 342.5 374.5Q321 404 282 404Q237 404 216.0 365.0Q195 326 195 257V217Q195 156 196.5 102.0Q198 48 203 -2Q190 0 170.5 0.0Q151 0 128 0Q105 0 86.0 0.0Q67 0 53 -2Q58 48 59.5 102.0Q61 156 61 217V257Q61 318 59.5 371.5Q58 425 53 479Q71 477 88.5 475.5Q106 474 124 474Q142 474 159.5 475.5Q177 477 197 479L193 404Z"/>
  <path fill="#171717" stroke="#171717" stroke-width="6" transform="translate(228.6600, 24) scale(0.026000, -0.026000)" d=""/>
  <path fill="#171717" stroke="#171717" stroke-width="6" transform="translate(235.3900, 24) scale(0.026000, -0.026000)" d="M404 188Q404 258 372.5 292.5Q341 327 281 327Q267 327 257.0 326.5Q247 326 238 326Q238 305 237.5 282.5Q237 260 237 229Q237 205 237.5 180.0Q238 155 238 131Q238 107 238.5 87.0Q239 67 239 54Q253 53 265.0 52.5Q277 52 294 52Q316 52 336.0 61.0Q356 70 371.0 87.5Q386 105 395.0 130.0Q404 155 404 188ZM397 511Q397 535 391.5 556.5Q386 578 373.0 593.5Q360 609 340.0 618.5Q320 628 290 628Q268 628 259.5 627.5Q251 627 241 625Q239 588 238.0 550.0Q237 512 237 486Q237 459 237.5 434.5Q238 410 238 384H283Q304 384 324.5 392.0Q345 400 361.0 415.5Q377 431 387.0 455.0Q397 479 397 511ZM89 408Q89 491 87.0 555.5Q85 620 81 685Q98 683 118.0 681.5Q138 680 163 680Q206 680 253.0 682.5Q300 685 343 685Q388 685 425.0 676.0Q462 667 489.0 648.5Q516 630 530.5 600.5Q545 571 545 530Q545 489 528.0 459.5Q511 430 486.5 410.5Q462 391 433.5 380.0Q405 369 382 365V363Q405 362 436.0 352.5Q467 343 495.0 323.0Q523 303 542.5 271.5Q562 240 562 195Q562 141 542.5 103.0Q523 65 490.5 41.0Q458 17 416.0 7.5Q374 -2 329 -2Q289 -2 254.5 -1.0Q220 0 182 0Q155 0 126.5 0.0Q98 0 81 -2Q85 60 87.0 124.5Q89 189 89 272Z"/>
  <path fill="#171717" stroke="#171717" stroke-width="6" transform="translate(250.7700, 24) scale(0.026000, -0.026000)" d="M197 355Q223 424 260.0 456.5Q297 489 348 489Q353 489 356.5 488.5Q360 488 364 488Q361 473 359.5 456.0Q358 439 358 416V384Q358 376 358 367Q358 358 359 350L350 342Q340 348 327.5 352.0Q315 356 299 356Q254 356 228.0 326.5Q202 297 202 257V217Q202 156 203.5 102.0Q205 48 210 -2Q197 0 177.5 0.0Q158 0 135 0Q112 0 93.0 0.0Q74 0 60 -2Q65 48 66.5 102.0Q68 156 68 217V257Q68 318 66.5 371.5Q65 425 60 479Q77 477 94.5 475.5Q112 474 129 474Q146 474 163.5 475.5Q181 477 198 479L195 357Z"/>
  <path fill="#171717" stroke="#171717" stroke-width="6" transform="translate(260.3900, 24) scale(0.026000, -0.026000)" d="M60 668Q60 701 83.0 724.0Q106 747 139 747Q172 747 195.0 724.0Q218 701 218 668Q218 635 195.0 612.0Q172 589 139 589Q106 589 83.0 612.0Q60 635 60 668ZM72 257Q72 318 70.5 371.5Q69 425 64 479Q78 477 97.0 475.5Q116 474 139 474Q186 474 214 479Q209 425 207.5 371.5Q206 318 206 257V217Q206 156 207.5 102.0Q209 48 214 -2Q201 0 181.5 0.0Q162 0 139 0Q116 0 97.0 0.0Q78 0 64 -2Q69 48 70.5 102.0Q72 156 72 217Z"/>
  <path fill="#171717" stroke="#171717" stroke-width="6" transform="translate(267.1200, 24) scale(0.026000, -0.026000)" d="M181 227Q181 176 188.0 141.0Q195 106 207.0 84.5Q219 63 234.5 53.5Q250 44 267 44Q308 44 334.5 90.5Q361 137 361 245Q361 338 336.0 380.5Q311 423 272 423Q256 423 240.0 414.0Q224 405 211.0 382.5Q198 360 189.5 322.0Q181 284 181 227ZM495 341Q495 243 497.0 161.0Q499 79 503 -2Q490 0 470.0 0.0Q450 0 428 0Q408 0 389.5 0.0Q371 0 361 -2Q362 0 363.0 11.0Q364 22 365.5 36.0Q367 50 368.0 62.0Q369 74 369 77L367 79Q348 34 315.0 9.5Q282 -15 224 -15Q173 -15 137.0 4.5Q101 24 78.0 59.0Q55 94 44.0 141.0Q33 188 33 242Q33 296 48.0 341.5Q63 387 89.0 420.5Q115 454 150.5 473.0Q186 492 226 492Q271 492 306.5 471.0Q342 450 359 418H361Q361 508 359.0 587.5Q357 667 353 752Q366 750 386.0 748.5Q406 747 428 747Q450 747 470.0 748.5Q490 750 503 752Q499 668 497.0 586.0Q495 504 495 406Z"/>
  <path fill="#171717" stroke="#171717" stroke-width="6" transform="translate(281.0700, 24) scale(0.026000, -0.026000)" d="M244 451Q176 451 176 319Q176 286 182.0 263.5Q188 241 197.5 227.0Q207 213 218.5 207.0Q230 201 242 201Q275 201 291.0 230.0Q307 259 307 328Q307 396 289.0 423.5Q271 451 244 451ZM393 441Q418 423 432.5 395.5Q447 368 447 330Q447 293 433.0 262.5Q419 232 393.5 210.0Q368 188 332.5 176.0Q297 164 253 164Q242 164 231.5 164.5Q221 165 208 165Q196 165 187.5 154.0Q179 143 179 129Q179 105 197.5 91.0Q216 77 256 76L330 75Q414 74 453.5 43.5Q493 13 493 -54Q493 -114 468.5 -154.5Q444 -195 405.5 -220.5Q367 -246 320.0 -257.0Q273 -268 229 -268Q135 -268 82.5 -231.5Q30 -195 30 -135Q30 -87 56.5 -57.5Q83 -28 128 -11V-9Q102 0 86.5 18.5Q71 37 71 65Q71 98 96.5 129.0Q122 160 164 171V173Q103 188 70 227Q36 267 36 331Q36 369 51.5 399.0Q67 429 95.0 449.5Q123 470 162.0 481.0Q201 492 248 492Q266 492 285.0 490.5Q304 489 322 488Q335 487 348.5 486.5Q362 486 378 486Q403 486 430.0 486.5Q457 487 484 487Q483 481 482.5 475.0Q482 469 482 463Q482 457 482.5 451.0Q483 445 484 439L396 443ZM377 -108Q377 -79 367.0 -60.5Q357 -42 338.5 -32.0Q320 -22 293.0 -18.5Q266 -15 232 -15Q180 -15 160 -25Q148 -31 134.5 -54.0Q121 -77 121 -112Q121 -141 131.5 -162.5Q142 -184 160.0 -198.0Q178 -212 201.5 -219.5Q225 -227 252 -227Q281 -227 304.0 -217.5Q327 -208 343.5 -191.5Q360 -175 368.5 -153.5Q377 -132 377 -108Z"/>
  <path fill="#171717" stroke="#171717" stroke-width="6" transform="translate(293.5700, 24) scale(0.026000, -0.026000)" d="M181 237Q181 197 189.0 162.0Q197 127 213.5 101.5Q230 76 255.5 61.5Q281 47 315 47Q384 47 438 92L450 83L428 27Q403 8 368.0 -3.5Q333 -15 276 -15Q227 -15 183.0 -1.5Q139 12 105.5 43.0Q72 74 52.5 121.5Q33 169 33 235Q33 300 50.5 348.0Q68 396 99.0 428.0Q130 460 172.5 476.0Q215 492 265 492Q364 492 416.5 434.0Q469 376 469 270V249Q469 240 468 237ZM335 282Q333 357 316.5 402.0Q300 447 261 447Q239 447 224.0 432.0Q209 417 200.0 393.5Q191 370 186.5 340.5Q182 311 181 282Z"/>
</g>
</svg>